<svg  viewBox="0 0 33 27" fill="none" xmlns="http://www.w3.org/2000/svg">
<path d="M27.0553 19.2636C26.2932 21.662 25.15 23.4412 23.5496 24.7563C21.9493 26.0717 19.8151 26.7679 17.1478 27L16.6143 23.4412C18.3671 23.2092 19.6627 22.8224 20.5011 22.2035C20.8059 21.9713 21.4156 21.2751 21.4156 21.2751L15.0899 0.696382H20.3487L24.0068 16.0916L27.8938 0.696382H33L27.0555 19.2636H27.0553ZM8.68806 0.000176292C9.90754 0.000176292 11.0507 0.154869 11.9653 0.54169C12.9561 0.92851 13.8706 1.47002 14.7851 2.24367L12.6513 5.18354C12.0414 4.71928 11.4318 4.40989 10.8983 4.17777C10.3649 3.94564 9.67887 3.86821 9.06913 3.86821C6.47795 3.86821 5.18236 5.87974 5.18236 9.98007C5.18236 12.0689 5.48714 13.5387 6.17316 14.3898C6.85901 15.3181 7.77354 15.7049 9.06913 15.7049C9.67904 15.7049 10.2886 15.6275 10.8221 15.3954C11.3555 15.1634 11.9653 14.8539 12.7274 14.3898L14.8612 17.4842C13.1085 18.9542 11.127 19.6504 8.84063 19.6504C7.01141 19.6504 5.48714 19.2636 4.11544 18.49C2.81968 17.7163 1.75276 16.5558 1.06692 15.086C0.380892 13.6162 0 11.9142 0 9.90264C0 7.96854 0.380892 6.18913 1.06692 4.71928C1.75276 3.172 2.81968 2.01171 4.11544 1.16064C5.41103 0.464256 6.9353 0 8.68806 0V0.000176292Z" fill="white"/>
</svg>
