<svg viewBox="0 0 27 20" fill="none" xmlns="http://www.w3.org/2000/svg">
<path d="M26.7435 7.55928C26.6625 7.50349 25.9875 6.95955 24.5295 6.95955C24.1515 6.95955 23.7735 7.00139 23.3955 7.07113C23.112 5.11855 21.5325 4.12831 21.465 4.08647L21.0735 3.84937L20.8305 4.22594C20.5065 4.72803 20.25 5.29986 20.142 5.88564C19.872 7.0014 20.034 8.06137 20.5875 8.96792C19.926 9.35844 18.846 9.45607 18.6165 9.45607H0.837C0.378 9.45607 0 9.84658 0 10.3347C0 11.9386 0.243 13.5425 0.783 15.0488C1.3905 16.7085 2.3085 17.9358 3.483 18.689C4.806 19.5258 6.9795 20 9.45 20C10.5165 20 11.6235 19.9024 12.717 19.6932C14.229 19.4142 15.687 18.8703 17.0235 18.0753C18.1304 17.4214 19.1211 16.5771 19.953 15.5788C21.3705 13.947 22.2075 12.0921 22.815 10.4881H23.0715C24.6105 10.4881 25.569 9.84658 26.0955 9.30265C26.4465 8.96792 26.703 8.56346 26.892 8.08926L27 7.75453L26.7435 7.55928ZM2.4975 8.94003H4.8735C4.9815 8.94003 5.0895 8.8424 5.0895 8.71688V6.51325C5.0895 6.40167 4.995 6.2901 4.8735 6.2901H2.4975C2.376 6.2901 2.2815 6.38773 2.2815 6.51325V8.71688C2.295 8.8424 2.376 8.94003 2.4975 8.94003ZM5.778 8.94003H8.154C8.262 8.94003 8.37 8.8424 8.37 8.71688V6.51325C8.37 6.40167 8.2755 6.2901 8.154 6.2901H5.778C5.6565 6.2901 5.562 6.38773 5.562 6.51325V8.71688C5.5755 8.8424 5.6565 8.94003 5.778 8.94003ZM9.1125 8.94003H11.475C11.61 8.94003 11.7045 8.8424 11.7045 8.71688V6.51325C11.7045 6.40167 11.6235 6.2901 11.475 6.2901H9.1125C9.0045 6.2901 8.91 6.38773 8.91 6.51325V8.71688C8.91 8.8424 8.991 8.94003 9.1125 8.94003ZM12.4065 8.94003H14.796C14.904 8.94003 14.9985 8.8424 14.9985 8.71688V6.51325C14.9985 6.40167 14.9175 6.2901 14.796 6.2901H12.4065C12.2985 6.2901 12.204 6.38773 12.204 6.51325V8.71688C12.204 8.8424 12.2985 8.94003 12.4065 8.94003ZM5.778 5.8159H8.154C8.262 5.8159 8.37 5.69038 8.37 5.56485V3.37517C8.37 3.24965 8.2755 3.15202 8.154 3.15202H5.778C5.6565 3.15202 5.562 3.2357 5.562 3.37517V5.56485C5.5755 5.69038 5.6565 5.8159 5.778 5.8159ZM9.1125 5.8159H11.475C11.61 5.8159 11.7045 5.69038 11.7045 5.56485V3.37517C11.7045 3.24965 11.6235 3.15202 11.475 3.15202H9.1125C9.0045 3.15202 8.91 3.2357 8.91 3.37517V5.56485C8.91 5.69038 8.991 5.8159 9.1125 5.8159ZM12.4065 5.8159H14.796C14.904 5.8159 14.9985 5.69038 14.9985 5.56485V3.37517C14.9985 3.24965 14.904 3.15202 14.796 3.15202H12.4065C12.2985 3.15202 12.204 3.2357 12.204 3.37517V5.56485C12.204 5.69038 12.2985 5.8159 12.4065 5.8159ZM12.4065 2.63598H14.796C14.904 2.63598 14.9985 2.53835 14.9985 2.41283V0.237099C14.9985 0.0976291 14.904 0 14.796 0H12.4065C12.2985 0 12.204 0.0836821 12.204 0.237099V2.41283C12.204 2.52441 12.2985 2.63598 12.4065 2.63598ZM15.7275 8.94003H18.1035C18.225 8.94003 18.3195 8.8424 18.3195 8.71688V6.51325C18.3195 6.40167 18.225 6.2901 18.1035 6.2901H15.7275C15.6195 6.2901 15.525 6.38773 15.525 6.51325V8.71688C15.525 8.8424 15.6195 8.94003 15.7275 8.94003Z" fill="white"/>
</svg>
