<svg width="32" height="32" viewBox="0 0 32 32" fill="none" xmlns="http://www.w3.org/2000/svg">
<g clip-path="url(#clip0)">
<path d="M31.396 14.573L17.422 0.604002C17.2307 0.412155 17.0033 0.259946 16.7531 0.156091C16.5028 0.0522374 16.2345 -0.0012207 15.9635 -0.0012207C15.6926 -0.0012207 15.4243 0.0522374 15.174 0.156091C14.9237 0.259946 14.6964 0.412155 14.505 0.604002L11.609 3.505L15.291 7.182C15.7235 7.03528 16.1885 7.01269 16.6332 7.1168C17.0779 7.2209 17.4846 7.44754 17.807 7.771C18.495 8.459 18.687 9.448 18.396 10.302L21.938 13.849C22.372 13.6979 22.8398 13.6724 23.2876 13.7756C23.7354 13.8787 24.1449 14.1063 24.469 14.432C25.433 15.39 25.433 16.942 24.469 17.901C24.2417 18.1287 23.9718 18.3094 23.6746 18.4327C23.3774 18.556 23.0588 18.6194 22.737 18.6194C22.4153 18.6194 22.0967 18.556 21.7995 18.4327C21.5023 18.3094 21.2323 18.1287 21.005 17.901C20.6637 17.5595 20.4303 17.1251 20.334 16.652C20.2376 16.1789 20.2825 15.6878 20.463 15.24L17.145 11.938V20.641C17.379 20.756 17.603 20.912 17.796 21.105C18.749 22.069 18.749 23.615 17.796 24.574C17.334 25.0341 16.7086 25.2925 16.0565 25.2925C15.4045 25.2925 14.779 25.0341 14.317 24.574C14.0311 24.288 13.8204 23.9358 13.7035 23.5487C13.5867 23.1616 13.5673 22.7516 13.6472 22.3552C13.7271 21.9588 13.9037 21.5883 14.1613 21.2767C14.419 20.9651 14.7497 20.7219 15.124 20.569V11.783C14.8255 11.6562 14.5534 11.4744 14.322 11.247C13.9779 10.9038 13.744 10.4657 13.6503 9.98881C13.5566 9.51191 13.6074 9.0179 13.796 8.57L10.181 4.935L0.598027 14.513C0.214932 14.9018 0.000183105 15.4257 0.000183105 15.9715C0.000183105 16.5173 0.214932 17.0412 0.598027 17.43L14.572 31.399C14.7634 31.5908 14.9907 31.7431 15.241 31.8469C15.4913 31.9508 15.7596 32.0042 16.0305 32.0042C16.3015 32.0042 16.5698 31.9508 16.8201 31.8469C17.0703 31.7431 17.2977 31.5908 17.489 31.399L31.395 17.493C31.5869 17.3016 31.7391 17.0743 31.8429 16.824C31.9468 16.5738 32.0002 16.3055 32.0002 16.0345C32.0002 15.7635 31.9468 15.4952 31.8429 15.245C31.7391 14.9947 31.5869 14.7674 31.395 14.576L31.396 14.573Z" fill="white"/>
</g>
<defs>
<clipPath id="clip0">
<rect width="32" height="32" fill="white"/>
</clipPath>
</defs>
</svg>
