<svg  viewBox="0 0 26 29" fill="none" xmlns="http://www.w3.org/2000/svg">
<path d="M14.0348 10.6322L10.3515 0H26L22.3039 10.6631C22.1449 10.7003 21.9886 10.7477 21.8359 10.805L18.1847 3.51925L14.5229 10.7619C14.3634 10.7079 14.2003 10.6646 14.0348 10.6322ZM2.00061 28.0367C6.92258 31.4184 12.382 24.8748 19.8185 24.0504C24.089 23.8029 26.9916 21.2457 25.3377 17.287C22.2627 19.1397 19.3888 16.712 19.4089 14.2759H17.0723C16.9956 16.4508 15.3231 18.1619 12.7307 17.9075C10.7014 20.8769 8.34958 22.5453 5.68098 23.3933C3.87731 22.5791 2.17995 20.5958 2.9495 17.9469C2.61463 17.9103 2.28634 17.8297 1.97352 17.7072C-0.507241 22.2384 -0.813789 25.8194 2.00061 28.0367V28.0367ZM5.66489 14.2762C5.66489 12.5552 3.74714 11.4737 2.22129 12.3342C0.695441 13.1947 0.695326 15.3577 2.22129 16.2181C3.74714 17.0787 5.66489 15.9972 5.66489 14.2762ZM15.5902 14.2549C15.5902 12.5339 13.6724 11.4524 12.1466 12.3129C10.6207 13.1735 10.6207 15.3363 12.1466 16.1968C13.6725 17.0573 15.5902 15.9759 15.5902 14.2549H15.5902ZM25.4783 14.2549C25.4783 12.5339 23.5605 11.4524 22.0346 12.3129C20.5088 13.1735 20.5087 15.3363 22.0346 16.1968C23.5605 17.0573 25.4782 15.9759 25.4782 14.2549H25.4783Z" fill="white"/>
</svg>
