<svg width="28" height="28" viewBox="0 0 28 28" fill="none" xmlns="http://www.w3.org/2000/svg">
<path d="M0 0V28H28V0H0ZM15.238 21.837C15.238 24.562 13.638 25.806 11.307 25.806C9.201 25.806 7.982 24.719 7.357 23.4L9.501 22.106C9.914 22.837 10.289 23.456 11.195 23.456C12.057 23.456 12.607 23.118 12.607 21.8V12.856H15.238V21.837ZM21.462 25.806C19.018 25.806 17.437 24.644 16.668 23.118L18.812 21.881C19.375 22.8 20.112 23.481 21.406 23.481C22.493 23.481 23.194 22.937 23.194 22.181C23.194 21.281 22.481 20.962 21.275 20.431L20.619 20.15C18.719 19.344 17.463 18.325 17.463 16.181C17.463 14.206 18.969 12.706 21.313 12.706C22.988 12.706 24.188 13.287 25.051 14.812L23.001 16.125C22.551 15.319 22.063 15 21.307 15C20.539 15 20.051 15.488 20.051 16.125C20.051 16.913 20.539 17.231 21.67 17.725L22.326 18.006C24.564 18.962 25.82 19.944 25.82 22.143C25.82 24.506 23.957 25.805 21.463 25.805L21.462 25.806Z" fill="white"/>
</svg>
