<svg width="32" height="32" viewBox="0 0 32 32" fill="none" xmlns="http://www.w3.org/2000/svg">
<path d="M22.906 12.693C21.224 5.27598 17.25 2.84398 16.823 1.91198C16.354 1.25098 15.849 0.000976562 15.849 0.000976562C15.844 0.0269766 15.844 0.0429766 15.839 0.0689766V0.0849766C15.839 0.105977 15.834 0.115977 15.834 0.136977V0.157977H15.829V0.224977H15.824C15.824 0.234977 15.824 0.250977 15.819 0.255977V0.286977C15.819 0.296977 15.819 0.307977 15.814 0.312977V0.338977C15.814 0.354977 15.814 0.369977 15.809 0.380977V0.385977C15.8081 0.408937 15.8047 0.431735 15.799 0.453977V0.463977C15.794 0.468977 15.794 0.473977 15.794 0.479977V0.500977H15.789V0.531977H15.784V0.552977H15.774V0.583977H15.769V0.609977H15.764V0.630977H15.759V0.651977H15.754V0.672977H15.749V0.693977H15.744V0.709977H15.739V0.730977H15.734V0.751977H15.729C15.724 0.751977 15.724 0.756977 15.724 0.756977V0.766977L15.719 0.776977C15.719 0.786977 15.714 0.797977 15.709 0.807977C15.704 0.812977 15.704 0.812977 15.704 0.817977V0.827977H15.699V0.837977H15.689V0.863977H15.679V0.879977H15.674V0.884977H15.669V0.894977H15.664V0.910977H15.659V0.920977H15.649V0.936977H15.644V0.946977H15.639V0.956977H15.634V0.972977H15.629V0.982977H15.624V0.987977H15.619V0.997977H15.609V1.01398H15.604V1.01898H15.599V1.02898H15.594V1.04498H15.589V1.04998H15.584V1.05998H15.579V1.06498H15.574V1.08098H15.564V1.08598H15.559V1.09598H15.554V1.10098H15.549V1.11098H15.544V1.12098C15.539 1.12098 15.539 1.12598 15.539 1.12598V1.13098H15.534L15.518 1.15698C15.518 1.15698 15.508 1.16698 15.508 1.17298C15.503 1.17298 15.503 1.17798 15.503 1.17798V1.18298H15.498V1.18798H15.493V1.19798H15.483V1.20298H15.478V1.20798H15.473V1.22298H15.468V1.22798H15.463V1.23298H15.458V1.24298H15.453V1.23298H15.443V1.23798H15.438V1.24798H15.433V1.25798H15.428V1.26298H15.423V1.26798H15.418V1.27298H15.413V1.28298H15.403V1.28798H15.398V1.29798H15.393V1.30298H15.388V1.30798H15.383V1.32398H15.378V1.32898H15.373V1.33398H15.368V1.33898H15.363V1.34398H15.353V1.35398H15.348V1.35898H15.343V1.36398H15.338V1.37398H15.333V1.37898H15.323V1.38398H15.318V1.38898H15.313V1.39898H15.308V1.40898H15.303V1.41398H15.298V1.41898H15.288V1.42398H15.283V1.42898H15.278V1.43898H15.273V1.44398H15.268V1.45398H15.263V1.45898H15.258V1.46398H15.253V1.46898H15.248V1.47398H15.238V1.47898C15.233 1.47898 15.233 1.48398 15.233 1.48398L15.228 1.48898L15.223 1.49398V1.50398H15.218V1.50898H15.213V1.51398H15.208V1.51898H15.203L15.193 1.52898V1.53398C15.183 1.53898 15.183 1.54398 15.172 1.55498C15.172 1.55498 15.162 1.56498 15.156 1.56498C15.14 1.57498 15.12 1.59598 15.104 1.61198C15.094 1.61698 15.083 1.62798 15.073 1.63298C15.052 1.65398 15.031 1.66898 15.01 1.68498C14.979 1.71598 14.947 1.73698 14.911 1.76798H14.906L14.661 1.98198H14.656C14.432 2.17998 14.166 2.43498 13.864 2.73698L13.838 2.76298C12.025 4.63798 9.16598 8.54898 8.86898 14.867C8.83798 15.388 8.84298 15.898 8.87398 16.393V16.403C9.01998 18.893 9.80098 21.018 10.78 22.747C11.165 23.435 11.587 24.06 12.014 24.622C13.483 26.56 14.983 27.711 15.363 27.992C15.952 29.351 15.899 31.695 15.899 31.695L16.758 31.981C16.758 31.981 16.581 29.715 16.826 28.616C16.904 28.277 17.081 27.986 17.29 27.736C17.436 27.637 17.853 27.335 18.353 26.877C18.379 26.851 18.395 26.83 18.416 26.804C20.442 24.913 24.229 20.257 22.932 12.674L22.906 12.693Z" fill="white"/>
</svg>
