<svg viewBox="0 0 24 24" fill="none" xmlns="http://www.w3.org/2000/svg">
<path d="M14.131 0.0471191C13.958 0.0471191 13.797 0.0841191 13.648 0.134119C13.964 0.344119 14.138 0.624119 14.224 0.940119C14.231 0.983119 14.243 1.01412 14.249 1.05712C14.2565 1.09403 14.2608 1.13149 14.262 1.16912C14.286 1.71412 14.119 1.78312 14.002 2.10512C13.822 2.52012 13.872 2.96612 14.088 3.32512C14.1078 3.37326 14.1326 3.41918 14.162 3.46212C13.927 1.89412 15.235 1.65912 15.476 1.16912C15.495 0.741119 15.142 0.456119 14.863 0.258119C14.6438 0.120348 14.39 0.0475349 14.131 0.0481191V0.0471191ZM16.102 0.400119C16.078 0.543119 16.096 0.506119 16.09 0.580119C16.084 0.630119 16.084 0.692119 16.078 0.741119C16.065 0.791119 16.053 0.841119 16.034 0.890119C16.022 0.940119 16.004 0.990119 15.984 1.03912L15.917 1.18112C15.897 1.20612 15.886 1.23112 15.867 1.25612L15.83 1.31112C15.8005 1.35356 15.7695 1.39492 15.737 1.43512C15.7 1.47312 15.669 1.51612 15.625 1.54712V1.55312C15.588 1.58412 15.551 1.62112 15.507 1.65312C15.377 1.75212 15.229 1.82612 15.092 1.91912C15.049 1.94912 15.005 1.97512 14.968 2.01212C14.926 2.04171 14.8865 2.07483 14.85 2.11112C14.807 2.14812 14.776 2.18512 14.739 2.22912C14.708 2.26612 14.671 2.30912 14.646 2.35312C14.6149 2.39499 14.5859 2.43838 14.559 2.48312C14.534 2.53312 14.516 2.57612 14.491 2.62512C14.472 2.67512 14.454 2.71812 14.441 2.76812C14.4246 2.81919 14.4103 2.8709 14.398 2.92312C14.392 2.94812 14.392 2.97912 14.386 3.00312C14.379 3.02812 14.379 3.05312 14.373 3.07812C14.373 3.12812 14.367 3.18312 14.367 3.23312C14.367 3.27012 14.367 3.30712 14.373 3.34412C14.373 3.39412 14.379 3.44412 14.392 3.49912C14.398 3.54912 14.41 3.59912 14.422 3.64912C14.442 3.69812 14.454 3.74712 14.472 3.79712C14.485 3.82712 14.503 3.85912 14.516 3.88412L13.09 3.33212C12.849 3.26412 12.613 3.20212 12.371 3.14612L11.981 3.05312C11.609 2.97912 11.231 2.92312 10.853 2.88612C10.84 2.88612 10.834 2.88012 10.822 2.88012C10.1833 2.81614 9.54022 2.80777 8.90004 2.85512C8.52204 2.88012 8.14404 2.92912 7.76604 2.99112C7.48513 3.03952 7.20596 3.09755 6.92904 3.16512L6.65004 3.23912C6.55804 3.27612 6.47004 3.31912 6.38404 3.35712L6.17904 3.45012C6.16704 3.45612 6.15504 3.45612 6.14904 3.46212C6.08604 3.49312 6.03104 3.51812 5.97504 3.54912C5.89452 3.58464 5.81576 3.62402 5.73904 3.66712C5.69604 3.68512 5.65304 3.71012 5.61504 3.72912C5.59728 3.74014 5.57892 3.75016 5.56004 3.75912C5.50404 3.79112 5.44804 3.82212 5.39804 3.85312C5.347 3.88133 5.29759 3.91238 5.25004 3.94612C5.20604 3.97612 5.16304 4.00112 5.12604 4.03212C5.12004 4.03912 5.11304 4.03912 5.10704 4.04512C5.07004 4.07012 5.02704 4.10112 4.98904 4.13212L4.97704 4.14412L4.88404 4.21812C4.87204 4.22512 4.85904 4.23712 4.84704 4.24312C4.81604 4.26812 4.78504 4.29912 4.75404 4.32312C4.74804 4.33612 4.73504 4.34312 4.72904 4.34812C4.69204 4.38612 4.65504 4.41712 4.61804 4.45412C4.61104 4.45412 4.61104 4.46012 4.60504 4.46612C4.5665 4.4998 4.52946 4.53517 4.49404 4.57212C4.48704 4.57812 4.48704 4.58412 4.48104 4.58412C4.44849 4.61598 4.41745 4.64935 4.38804 4.68412C4.37604 4.69612 4.35804 4.70812 4.34504 4.72012C4.31183 4.75941 4.27644 4.7968 4.23904 4.83212C4.23304 4.84412 4.22104 4.85112 4.21504 4.86212C4.16504 4.91212 4.12204 4.96212 4.07204 5.01212L4.05404 5.03012C3.95404 5.13612 3.84904 5.24112 3.73704 5.33412C3.62604 5.43412 3.50804 5.52612 3.39004 5.60712C3.15311 5.77635 2.89742 5.91763 2.62804 6.02812C2.49804 6.08412 2.36104 6.13412 2.22504 6.17712C1.96504 6.23312 1.69804 6.33812 1.46904 6.35712C1.41904 6.35712 1.36404 6.36912 1.31404 6.37512L1.15904 6.41212L1.01004 6.46812C0.960037 6.48712 0.911037 6.51212 0.862037 6.53612C0.818037 6.56712 0.769037 6.59212 0.725037 6.62312C0.680916 6.65505 0.639448 6.6905 0.601037 6.72912C0.558037 6.75912 0.514037 6.80312 0.477037 6.84012C0.440037 6.88312 0.403037 6.92012 0.372037 6.96412C0.341037 7.01412 0.304037 7.05712 0.279037 7.10712C0.246465 7.15217 0.217381 7.19964 0.192037 7.24912C0.167037 7.30512 0.142037 7.35512 0.124037 7.41012C0.105037 7.46012 0.0870374 7.51612 0.0680374 7.57112C0.0560374 7.62112 0.0430374 7.67112 0.0380374 7.72112C0.0380374 7.72612 0.0310374 7.73312 0.0310374 7.73912C0.0190374 7.79512 0.0190374 7.86912 0.0120374 7.90612C0.00603739 7.95012 3.73942e-05 7.98612 3.73942e-05 8.03012C-0.00111312 8.13796 0.0243013 8.24443 0.0740374 8.34012V8.34612C0.0930374 8.38312 0.118037 8.42112 0.143037 8.45812C0.167037 8.49512 0.193037 8.53212 0.223037 8.56912C0.254037 8.60012 0.291037 8.63812 0.329037 8.66912C0.365171 8.70536 0.404311 8.73848 0.446037 8.76812C0.595037 8.89812 0.632037 8.94112 0.824037 9.04012C0.855037 9.05912 0.886037 9.07112 0.924037 9.09012C0.930037 9.09012 0.936037 9.09612 0.942037 9.09612C0.942037 9.10912 0.942037 9.11512 0.948037 9.12712C0.962513 9.22933 0.989377 9.3294 1.02804 9.42512C1.04804 9.46212 1.06004 9.49912 1.07804 9.53612C1.08504 9.54912 1.09104 9.56112 1.09804 9.56712C1.12204 9.61712 1.14704 9.66012 1.17104 9.70412L1.26404 9.83412C1.29504 9.87112 1.33304 9.91412 1.37004 9.95212C1.40704 9.98912 1.44404 10.0201 1.48804 10.0571C1.48804 10.0571 1.49404 10.0631 1.50004 10.0631C1.53704 10.0941 1.57404 10.1251 1.61204 10.1501C1.65516 10.1804 1.70064 10.2071 1.74804 10.2301C1.79104 10.2551 1.84104 10.2801 1.89004 10.2991C1.93 10.3171 1.9715 10.3315 2.01404 10.3421C2.02104 10.3481 2.02704 10.3481 2.03904 10.3541C2.06404 10.3611 2.09504 10.3671 2.11904 10.3731C2.10104 10.7081 2.09504 11.0231 2.14504 11.1351C2.20004 11.2591 2.47304 10.8811 2.74504 10.4471C2.70904 10.8751 2.68404 11.3771 2.74504 11.5261C2.81404 11.6811 3.18504 11.1971 3.50804 10.6641C7.90304 9.64812 11.913 12.6841 12.334 16.9741C12.254 16.3041 11.429 15.9331 11.051 16.0261C10.865 16.4841 10.549 17.0731 10.041 17.4391C10.084 17.0291 10.066 16.6091 9.97904 16.1991C9.84022 16.7698 9.5777 17.3031 9.21004 17.7611C8.62204 17.8041 8.03304 17.5191 7.72304 17.0911C7.69804 17.0731 7.69204 17.0361 7.67304 17.0111C7.65504 16.9681 7.63604 16.9241 7.62304 16.8811C7.60505 16.8396 7.59261 16.7959 7.58604 16.7511C7.58004 16.7071 7.58004 16.6641 7.58004 16.6141V16.5211C7.58744 16.4771 7.59779 16.4337 7.61104 16.3911C7.62404 16.3481 7.63604 16.3051 7.65504 16.2611C7.67904 16.2181 7.69804 16.1741 7.72904 16.1311C7.83404 15.8331 7.83404 15.5911 7.64204 15.4491C7.60475 15.4248 7.56524 15.404 7.52404 15.3871C7.50004 15.3811 7.46904 15.3691 7.44404 15.3621L7.39404 15.3441C7.35159 15.3304 7.30812 15.32 7.26404 15.3131C7.2218 15.3008 7.17804 15.2944 7.13404 15.2941C7.08903 15.2871 7.04359 15.283 6.99804 15.2821C6.96704 15.2821 6.93604 15.2881 6.90504 15.2881C6.8587 15.2879 6.81256 15.2943 6.76804 15.3071C6.72504 15.3131 6.68204 15.3191 6.63804 15.3311C6.59381 15.343 6.55038 15.3577 6.50804 15.3751C6.46504 15.3931 6.42804 15.4121 6.38404 15.4311C6.34704 15.4491 6.31004 15.4741 6.26604 15.4931C4.82204 16.4351 5.68404 18.6411 6.66904 19.2801C6.29704 19.3481 5.91904 19.4281 5.81404 19.5091L5.80104 19.5211C6.06804 19.6821 6.34704 19.8191 6.63804 19.9371C7.03504 20.0671 7.45604 20.1841 7.64204 20.2341V20.2401C8.15557 20.3456 8.68071 20.3832 9.20404 20.3521C11.95 20.1601 14.2 18.0711 14.609 15.3191L14.646 15.4801C14.665 15.5921 14.689 15.7101 14.702 15.8271V15.8331C14.714 15.8891 14.72 15.9451 14.727 15.9951V16.0191C14.733 16.0751 14.739 16.1311 14.739 16.1811C14.745 16.2491 14.751 16.3171 14.751 16.3851V16.4851C14.751 16.5151 14.758 16.5521 14.758 16.5831C14.758 16.6211 14.751 16.6581 14.751 16.6951V16.7821C14.751 16.8251 14.745 16.8621 14.745 16.9061C14.745 16.9311 14.745 16.9561 14.739 16.9861C14.739 17.0301 14.733 17.0731 14.733 17.1231C14.727 17.1411 14.727 17.1601 14.727 17.1781L14.707 17.3211C14.707 17.3401 14.707 17.3581 14.702 17.3771C14.695 17.4391 14.683 17.4951 14.677 17.5571V17.5691L14.64 17.7431V17.7611L14.603 17.9281C14.603 17.9351 14.596 17.9481 14.596 17.9531C14.5846 18.0098 14.5703 18.0659 14.553 18.1211V18.1391C14.534 18.2011 14.516 18.2571 14.503 18.3131C14.497 18.3191 14.497 18.3251 14.497 18.3251L14.441 18.5111C14.417 18.5731 14.398 18.6291 14.373 18.6911C14.348 18.7531 14.33 18.8151 14.305 18.8711C14.28 18.9331 14.255 18.9881 14.231 19.0511H14.224C14.2 19.1061 14.174 19.1681 14.144 19.2241C14.1388 19.2389 14.1325 19.2533 14.125 19.2671C14.119 19.2731 14.119 19.2801 14.113 19.2861C13.7031 20.1068 13.1065 20.8198 12.371 21.3681C12.321 21.3991 12.272 21.4371 12.222 21.4741C12.21 21.4861 12.192 21.4921 12.179 21.5041C12.1347 21.5369 12.0894 21.5682 12.043 21.5981L12.061 21.6351H12.068L12.328 21.5981H12.334C12.495 21.5731 12.656 21.5421 12.817 21.5111C12.861 21.5051 12.91 21.4921 12.954 21.4801L13.041 21.4611C13.084 21.4551 13.127 21.4431 13.171 21.4371C13.208 21.4241 13.245 21.4171 13.282 21.4061C13.902 21.2561 14.503 21.0521 15.08 20.8111C14.0839 22.168 12.759 23.2492 11.23 23.9531C11.944 23.9031 12.656 23.7861 13.344 23.5871C15.8342 22.855 17.9375 21.1744 19.201 18.9071C18.9458 20.3424 18.3766 21.7035 17.534 22.8931C18.1348 22.4969 18.6898 22.0354 19.189 21.5171C20.5764 20.0687 21.4872 18.2304 21.799 16.2491C22.009 17.2291 22.071 18.2391 21.979 19.2361C26.453 12.9951 22.35 6.52412 20.633 4.82012C20.627 4.80712 20.621 4.80112 20.621 4.78912C20.615 4.79512 20.615 4.79512 20.615 4.80112C20.615 4.79512 20.615 4.79512 20.608 4.78912C20.608 4.86312 20.602 4.93712 20.596 5.01212C20.5789 5.15095 20.5582 5.28933 20.534 5.42712C20.504 5.56312 20.466 5.70012 20.429 5.83712C20.385 5.96712 20.336 6.10312 20.279 6.23312C20.2224 6.36151 20.1607 6.48761 20.094 6.61112C19.9557 6.85409 19.796 7.08432 19.617 7.29912C19.524 7.41012 19.425 7.50912 19.325 7.60912C19.2666 7.66256 19.2066 7.71425 19.145 7.76412L19.003 7.88812C18.8924 7.97545 18.7765 8.05593 18.656 8.12912C18.5376 8.20541 18.4154 8.27583 18.29 8.34012C18.16 8.40212 18.03 8.45812 17.9 8.51412C17.6353 8.61483 17.3613 8.68951 17.082 8.73712C16.939 8.76212 16.797 8.77412 16.66 8.78712C16.5612 8.79411 16.4621 8.79811 16.363 8.79912C16.2221 8.79717 16.0813 8.78883 15.941 8.77412C15.7995 8.76301 15.6588 8.74229 15.52 8.71212C15.3795 8.68661 15.2408 8.65153 15.105 8.60712H15.098C15.235 8.59412 15.371 8.58212 15.508 8.55712C15.7871 8.50874 16.061 8.43407 16.326 8.33412C16.462 8.28412 16.592 8.22212 16.716 8.16012C16.846 8.09812 16.964 8.03012 17.088 7.95612C17.206 7.87612 17.323 7.79512 17.435 7.70812C17.547 7.62112 17.652 7.52812 17.751 7.42912C17.856 7.33612 17.949 7.23112 18.042 7.12512C18.135 7.01412 18.222 6.90212 18.302 6.79112C18.315 6.77212 18.328 6.74712 18.34 6.72912C18.402 6.62912 18.464 6.53012 18.52 6.43112C18.6567 6.18444 18.7686 5.92484 18.854 5.65612C18.898 5.52612 18.929 5.39012 18.96 5.25312C18.985 5.11112 19.01 4.97512 19.022 4.83812C19.034 4.69612 19.047 4.55312 19.047 4.41712C19.047 4.31712 19.04 4.21812 19.034 4.11912C19.0217 3.9803 19.005 3.8419 18.984 3.70412C18.9599 3.56441 18.9292 3.42592 18.892 3.28912C18.848 3.15912 18.805 3.02212 18.755 2.89212C18.705 2.76212 18.644 2.63212 18.582 2.50812C18.513 2.38412 18.445 2.26012 18.371 2.14212C18.2919 2.02627 18.2092 1.91288 18.123 1.80212C18.03 1.69612 17.937 1.59012 17.838 1.48512C17.7859 1.43192 17.7322 1.38023 17.677 1.33012C17.397 1.11312 17.107 0.909119 16.815 0.723119C16.775 0.699986 16.7336 0.679282 16.691 0.661119C16.5072 0.548553 16.3091 0.460109 16.102 0.400119Z" fill="white"/>
</svg>
