<svg width="32" height="32" viewBox="0 0 32 32" fill="none" xmlns="http://www.w3.org/2000/svg">
<g clip-path="url(#clip0)">
<path d="M23.749 30.005C23.63 30.068 23.64 30.088 23.754 30.03C23.7891 30.0157 23.8213 29.995 23.849 29.969C23.849 29.948 23.849 29.948 23.749 30.005V30.005ZM23.989 29.875C23.932 29.922 23.932 29.922 24 29.891C24.0251 29.8792 24.0481 29.8634 24.068 29.844C24.068 29.817 24.052 29.823 23.989 29.875V29.875ZM24.145 29.781C24.088 29.828 24.088 29.828 24.156 29.797C24.1812 29.785 24.2042 29.7688 24.224 29.749C24.224 29.724 24.208 29.729 24.145 29.781ZM24.303 29.688C24.246 29.735 24.246 29.735 24.312 29.703C24.349 29.683 24.38 29.662 24.38 29.656C24.38 29.631 24.364 29.636 24.303 29.688ZM24.516 29.547C24.407 29.62 24.369 29.667 24.469 29.615C24.536 29.574 24.65 29.484 24.63 29.484C24.587 29.5 24.551 29.527 24.515 29.547H24.516ZM14.953 0.0110121C14.88 0.0160121 14.661 0.0360121 14.469 0.0520121C9.921 0.464012 5.666 2.91201 2.969 6.68301C1.47856 8.75126 0.509758 11.1489 0.145 13.672C0.016 14.552 0 14.812 0 16.005C0 17.197 0.016 17.453 0.145 18.333C1.016 24.344 5.292 29.39 11.088 31.26C12.131 31.593 13.224 31.823 14.469 31.964C14.953 32.016 17.046 32.016 17.53 31.964C19.682 31.724 21.499 31.193 23.297 30.276C23.573 30.136 23.625 30.099 23.588 30.068C22.7109 28.9086 21.8412 27.7436 20.979 26.573L18.422 23.12L15.219 18.375C14.1536 16.7863 13.0772 15.2049 11.99 13.631C11.979 13.631 11.965 15.74 11.959 18.312C11.948 22.817 11.948 23 11.891 23.104C11.8363 23.2296 11.7384 23.3315 11.615 23.391C11.516 23.438 11.427 23.448 10.954 23.448H10.413L10.272 23.36C10.1837 23.3034 10.1119 23.2243 10.064 23.131L9.996 22.99L10.001 16.719L10.012 10.448L10.111 10.323C10.1742 10.2462 10.2521 10.1826 10.34 10.136C10.471 10.073 10.523 10.063 11.064 10.063C11.699 10.063 11.804 10.088 11.971 10.271C13.2685 12.2009 14.5549 14.1383 15.83 16.083C17.909 19.235 20.747 23.536 22.142 25.646L24.679 29.485L24.804 29.402C26.0232 28.5918 27.1281 27.6214 28.089 26.517C30.1045 24.2101 31.4124 21.3711 31.856 18.34C31.985 17.46 32.001 17.199 32.001 16.007C32.001 14.814 31.985 14.559 31.856 13.679C30.985 7.66801 26.709 2.62201 20.913 0.751012C19.8298 0.407933 18.7149 0.17443 17.585 0.0540121C17.282 0.0230121 15.214 -0.0139879 14.954 0.0130121L14.953 0.0110121ZM21.5 9.68801C21.5744 9.72455 21.6408 9.77556 21.6952 9.83806C21.7496 9.90057 21.791 9.9733 21.817 10.052C21.844 10.136 21.849 11.875 21.844 15.792L21.833 21.416L20.844 19.896L19.849 18.375V14.292C19.849 11.645 19.86 10.161 19.874 10.088C19.923 9.92063 20.0352 9.77893 20.187 9.69301C20.311 9.63001 20.359 9.62501 20.854 9.62501C21.317 9.62501 21.395 9.63001 21.499 9.68801H21.5Z" fill="white"/>
</g>
<defs>
<clipPath id="clip0">
<rect width="32" height="32" fill="white"/>
</clipPath>
</defs>
</svg>
