<svg width="32" height="34" viewBox="0 0 22 24" fill="none" xmlns="http://www.w3.org/2000/svg">
<path d="M10.899 24C10.577 24 10.259 23.916 9.976 23.753L7.041 22.015C6.602 21.77 6.816 21.683 6.961 21.633C7.545 21.429 7.664 21.383 8.288 21.028C8.354 20.991 8.44 21.004 8.507 21.043L10.762 22.382C10.8042 22.4038 10.851 22.4151 10.8985 22.4151C10.946 22.4151 10.9928 22.4038 11.035 22.382L19.829 17.305C19.8699 17.2804 19.9037 17.2456 19.9271 17.2041C19.9506 17.1626 19.963 17.1157 19.963 17.068V6.919C19.9631 6.87036 19.9507 6.82251 19.9268 6.78011C19.903 6.7377 19.8686 6.70219 19.827 6.677L11.037 1.605C10.9958 1.58112 10.9491 1.56854 10.9015 1.56854C10.8539 1.56854 10.8072 1.58112 10.766 1.605L1.976 6.677C1.93398 6.70149 1.89907 6.7365 1.8747 6.77858C1.85032 6.82067 1.83733 6.86837 1.837 6.917V17.065C1.837 17.162 1.89 17.255 1.974 17.301L4.382 18.692C5.69 19.346 6.489 18.576 6.489 17.801V7.785C6.48846 7.75141 6.49469 7.71806 6.50732 7.68693C6.51996 7.6558 6.53874 7.62754 6.56254 7.60383C6.58634 7.58012 6.61468 7.56145 6.64585 7.54894C6.67703 7.53643 6.71041 7.53033 6.744 7.531H7.858C7.997 7.531 8.111 7.641 8.111 7.785V17.805C8.111 19.549 7.161 20.55 5.507 20.55C4.998 20.55 4.597 20.55 3.479 20L1.172 18.67C0.891584 18.5062 0.658929 18.2719 0.497174 17.9903C0.33542 17.7088 0.250203 17.3897 0.25 17.065V6.917C0.25 6.257 0.602 5.64 1.172 5.315L9.976 0.236002C10.2595 0.0810798 10.5774 -0.000110626 10.9005 -0.000110626C11.2236 -0.000110626 11.5415 0.0810798 11.825 0.236002L20.617 5.316C21.185 5.645 21.539 6.259 21.539 6.919V17.068C21.5383 17.3922 21.4528 17.7106 21.2911 17.9916C21.1294 18.2726 20.897 18.5065 20.617 18.67L11.825 23.749C11.543 23.9112 11.2233 23.996 10.898 23.995V24H10.899ZM13.615 17.007C9.767 17.007 8.961 15.241 8.961 13.759C8.961 13.619 9.074 13.506 9.215 13.506H10.351C10.477 13.506 10.582 13.597 10.602 13.721C10.774 14.879 11.285 15.463 13.612 15.463C15.465 15.463 16.253 15.044 16.253 14.061C16.253 13.495 16.028 13.075 13.149 12.793C10.741 12.555 9.253 12.025 9.253 10.099C9.253 8.324 10.75 7.268 13.257 7.268C16.072 7.268 17.468 8.245 17.644 10.345C17.647 10.3803 17.6427 10.4159 17.6313 10.4495C17.6199 10.4831 17.6016 10.5139 17.5776 10.54C17.5536 10.5662 17.5245 10.5871 17.492 10.6013C17.4595 10.6156 17.4245 10.623 17.389 10.623H16.246C16.1884 10.6229 16.1326 10.6031 16.0879 10.5669C16.0431 10.5307 16.0121 10.4803 16 10.424C15.725 9.207 15.06 8.817 13.253 8.817C11.23 8.817 10.994 9.522 10.994 10.05C10.994 10.69 11.271 10.878 14.001 11.239C16.704 11.598 17.988 12.104 17.988 14.004C17.988 15.919 16.389 17.018 13.603 17.018L13.615 17.008V17.007Z" fill="white"/>
</svg>
