<svg width="32" height="30" viewBox="0 0 32 30" fill="none" xmlns="http://www.w3.org/2000/svg">
<path d="M16 12.146C14.427 12.146 13.146 13.427 13.146 15C13.146 16.573 14.427 17.854 16 17.854C17.573 17.854 18.854 16.573 18.854 15C18.854 13.427 17.573 12.146 16 12.146ZM8.01 20.672L7.38 20.516C2.692 19.328 0 17.318 0 14.995C0 12.672 2.693 10.662 7.38 9.474L8.01 9.318L8.187 9.943C8.66257 11.58 9.27058 13.1756 10.005 14.714L10.14 14.995L10.005 15.281C9.26904 16.8187 8.66099 18.4145 8.187 20.052L8.01 20.672ZM7.089 10.932C3.526 11.932 1.339 13.468 1.339 14.995C1.339 16.522 3.527 18.052 7.089 19.058C7.52565 17.6706 8.05278 16.3134 8.667 14.995C8.05192 13.677 7.52477 12.3197 7.089 10.932V10.932ZM23.99 20.672L23.813 20.047C23.3383 18.4113 22.7302 16.8173 21.995 15.281L21.86 14.995L21.995 14.709C22.731 13.1713 23.339 11.5755 23.813 9.938L23.99 9.318L24.62 9.474C29.308 10.662 32 12.672 32 14.995C32 17.318 29.307 19.328 24.62 20.516L23.99 20.672ZM23.333 14.995C23.9493 16.3125 24.4764 17.6699 24.911 19.058C28.479 18.053 30.661 16.522 30.661 14.995C30.661 13.468 28.473 11.938 24.911 10.932C24.4733 12.319 23.9462 13.6762 23.333 14.995ZM7.078 10.927L6.901 10.302C5.583 5.656 5.984 2.323 8 1.161C9.979 0.0199997 13.151 1.369 16.479 4.786L16.932 5.25L16.479 5.714C15.2972 6.94362 14.2173 8.26732 13.25 9.672L13.068 9.927L12.755 9.953C11.0535 10.0873 9.36563 10.3592 7.708 10.766L7.078 10.927ZM9.609 2.089C9.25 2.089 8.932 2.162 8.666 2.318C7.343 3.084 7.109 5.74 8.02 9.323C9.44145 9.00503 10.8822 8.78055 12.333 8.651C13.1683 7.46139 14.0816 6.32856 15.067 5.26C12.989 3.234 11.02 2.088 9.609 2.088V2.089ZM22.396 29.234C22.391 29.234 22.391 29.234 22.396 29.234C20.495 29.234 18.052 27.807 15.521 25.203L15.068 24.739L15.521 24.275C16.7028 23.0454 17.7827 21.7217 18.75 20.317L18.927 20.062L19.24 20.031C20.9437 19.9012 22.6336 19.6293 24.292 19.218L24.922 19.062L25.099 19.687C26.417 24.333 26.016 27.661 24 28.822C23.5126 29.1021 22.9581 29.2442 22.396 29.233V29.234ZM16.932 24.729C19.01 26.755 20.979 27.901 22.39 27.901H22.395C22.749 27.901 23.067 27.823 23.333 27.672C24.656 26.906 24.896 24.25 23.979 20.667C22.5578 20.9853 21.1169 21.2081 19.666 21.334C18.8308 22.5252 17.9174 23.6597 16.932 24.73V24.729ZM24.922 10.927L24.292 10.766C22.6324 10.3605 20.943 10.0887 19.24 9.953L18.927 9.927L18.75 9.672C17.7827 8.26732 16.7028 6.94362 15.521 5.714L15.068 5.25L15.521 4.786C18.849 1.369 22.021 0.0199997 24 1.161C26.016 2.322 26.417 5.656 25.099 10.302L24.922 10.927ZM19.667 8.651C21.1178 8.7802 22.5586 9.00469 23.98 9.323C24.897 5.74 24.657 3.083 23.334 2.318C22.016 1.558 19.537 2.724 16.933 5.261C17.9157 6.33185 18.8289 7.4645 19.667 8.652V8.651ZM9.609 29.234C9.046 29.244 8.489 29.104 8 28.823C5.984 27.662 5.583 24.333 6.901 19.688L7.078 19.063L7.708 19.219C9.25 19.61 10.948 19.88 12.755 20.032L13.068 20.063L13.245 20.318C14.2123 21.7227 15.2922 23.0464 16.474 24.276L16.927 24.74L16.474 25.204C13.948 27.808 11.505 29.235 9.609 29.235V29.234ZM8.021 20.667C7.104 24.25 7.344 26.907 8.667 27.672C9.985 28.422 12.459 27.266 15.068 24.729C14.0826 23.6587 13.1692 22.5242 12.334 21.333C10.883 21.2075 9.44211 20.9847 8.021 20.666V20.667ZM16 21.505C14.901 21.505 13.776 21.458 12.646 21.364L12.333 21.338L12.151 21.078C11.5127 20.1609 10.9132 19.2174 10.354 18.25C9.79365 17.2826 9.27419 16.292 8.797 15.281L8.662 14.995L8.797 14.709C9.75303 12.6874 10.8749 10.7484 12.151 8.912L12.333 8.652L12.646 8.626C14.878 8.438 17.122 8.438 19.354 8.626L19.667 8.652L19.849 8.912C21.1268 10.7474 22.2487 12.6865 23.203 14.709L23.338 14.995L23.203 15.281C22.2506 17.3045 21.1286 19.2438 19.849 21.078L19.667 21.338L19.354 21.364C18.2384 21.4574 17.1195 21.5044 16 21.505V21.505ZM13.073 20.057C15.042 20.208 16.958 20.208 18.932 20.057C20.0329 18.4449 21.0113 16.7525 21.859 14.994C21.0149 13.2326 20.0346 11.5398 18.927 9.931C16.9786 9.78 15.0214 9.78 13.073 9.931C11.9646 11.5393 10.9843 13.2322 10.141 14.994C10.9889 16.7534 11.9691 18.4459 13.073 20.057V20.057Z" fill="white"/>
</svg>
