<svg width="35" height="27" viewBox="0 0 33 25" fill="none" xmlns="http://www.w3.org/2000/svg">
<path d="M15.092 18.146C15.077 18.176 15.062 18.2 15.092 18.146V18.146ZM27.548 13.796C26.542 13.796 25.55 14.026 24.648 14.471C24.353 13.876 24.048 13.356 23.998 12.966C23.938 12.511 23.873 12.241 23.943 11.701C24.013 11.161 24.328 10.396 24.323 10.341C24.318 10.286 24.253 10.011 23.608 10.006C22.963 10.001 22.408 10.131 22.343 10.301C22.2289 10.6116 22.1402 10.931 22.078 11.256C21.963 11.841 20.789 13.931 20.124 15.021C19.904 14.596 19.719 14.221 19.679 13.921C19.619 13.466 19.554 13.196 19.624 12.656C19.694 12.116 20.009 11.351 20.004 11.296C19.999 11.241 19.934 10.966 19.29 10.961C18.646 10.956 18.09 11.086 18.025 11.256C17.96 11.426 17.89 11.826 17.76 12.211C17.63 12.596 16.065 16.076 15.656 16.981C15.446 17.441 15.266 17.811 15.136 18.061C15.116 18.101 15.101 18.126 15.091 18.146C15.106 18.121 15.116 18.096 15.116 18.106C15.006 18.321 14.941 18.441 14.941 18.441V18.446C14.856 18.606 14.761 18.751 14.716 18.751C14.686 18.751 14.621 18.331 14.731 17.756C14.966 16.546 15.521 14.666 15.516 14.601C15.511 14.566 15.621 14.241 15.151 14.066C14.696 13.901 14.531 14.176 14.491 14.176C14.451 14.176 14.421 14.276 14.421 14.276C14.421 14.276 14.926 12.156 13.451 12.156C12.531 12.156 11.251 13.166 10.622 14.081C10.227 14.296 9.37201 14.761 8.47201 15.256L7.43701 15.826C7.41201 15.801 7.39201 15.776 7.36701 15.751C5.57701 13.841 2.27301 12.491 2.41301 9.926C2.46301 8.991 2.78801 6.536 8.76701 3.556C13.667 1.116 17.584 1.786 18.259 3.276C19.229 5.401 16.164 9.356 11.076 9.926C9.13601 10.141 8.11701 9.391 7.86201 9.111C7.59701 8.816 7.55701 8.801 7.45701 8.856C7.29201 8.946 7.39701 9.206 7.45701 9.361C7.60701 9.756 8.23201 10.456 9.29701 10.806C10.232 11.111 12.506 11.281 15.255 10.216C18.344 9.026 20.749 5.711 20.043 2.936C19.325 0.115999 14.649 -0.809 10.228 0.761C7.59301 1.696 4.74401 3.166 2.69501 5.081C0.260006 7.361 -0.128993 9.346 0.0310065 10.176C0.601007 13.121 4.66001 15.041 6.28401 16.461L6.05901 16.586C5.24401 16.991 2.15001 18.611 1.37501 20.321C0.500007 22.261 1.52001 23.651 2.18901 23.841C4.27901 24.421 6.41801 23.376 7.56801 21.661C8.71801 19.946 8.57801 17.706 8.04801 16.686C8.04301 16.671 8.03301 16.661 8.02801 16.646C8.62798 16.2906 9.23304 15.9439 9.84301 15.606C9.64301 16.146 9.49801 16.796 9.42301 17.736C9.33301 18.836 9.78801 20.261 10.378 20.821C10.638 21.066 10.952 21.071 11.148 21.071C11.838 21.071 12.148 20.501 12.493 19.821C12.918 18.991 13.293 18.026 13.293 18.026C13.293 18.026 12.823 20.636 14.108 20.636C14.578 20.636 15.048 20.031 15.258 19.721V19.726C15.258 19.726 15.268 19.706 15.293 19.666C15.343 19.591 15.368 19.546 15.368 19.546V19.531C15.558 19.206 15.973 18.461 16.598 17.231C17.408 15.641 18.182 13.656 18.182 13.656C18.257 14.092 18.361 14.523 18.492 14.946C18.632 15.421 18.927 15.941 19.162 16.446C18.972 16.706 18.857 16.856 18.857 16.856C18.857 16.86 18.859 16.863 18.862 16.866C18.712 17.066 18.542 17.281 18.367 17.491C17.728 18.251 16.967 19.121 16.867 19.371C16.747 19.666 16.777 19.886 17.007 20.056C17.177 20.186 17.477 20.206 17.792 20.181C18.367 20.141 18.772 20.001 18.967 19.911C19.3267 19.7821 19.6666 19.6038 19.977 19.381C20.602 18.921 20.982 18.261 20.947 17.391C20.927 16.911 20.772 16.431 20.582 15.981C20.637 15.901 20.697 15.816 20.752 15.731C21.4027 14.7601 21.9889 13.7476 22.507 12.7C22.582 13.136 22.685 13.567 22.817 13.99C22.937 14.395 23.172 14.84 23.387 15.275C22.457 16.03 21.882 16.905 21.683 17.48C21.313 18.545 21.603 19.025 22.148 19.135C22.393 19.185 22.743 19.07 23.003 18.96C23.389 18.831 23.753 18.644 24.082 18.405C24.707 17.945 25.312 17.3 25.271 16.425C25.256 16.03 25.146 15.635 25.001 15.255C25.786 14.925 26.806 14.745 28.106 14.895C30.89 15.22 31.435 16.96 31.33 17.685C31.225 18.41 30.64 18.815 30.445 18.935C30.25 19.055 30.19 19.1 30.205 19.19C30.23 19.32 30.32 19.315 30.485 19.285C30.715 19.245 31.945 18.695 32 17.35C32.08 15.65 30.445 13.78 27.55 13.795L27.548 13.796ZM6.08901 21.031C5.16901 22.036 3.88001 22.416 3.32501 22.096C2.73001 21.75 2.96501 20.271 4.09901 19.2C4.78901 18.55 5.67901 17.95 6.26901 17.58C6.40401 17.5 6.59901 17.38 6.83901 17.235C6.85851 17.2225 6.87853 17.2108 6.89901 17.2C6.94401 17.17 6.99401 17.145 7.04401 17.115C7.45801 18.635 7.05901 19.975 6.08901 21.03V21.031ZM12.807 16.461C12.487 17.246 11.813 19.246 11.402 19.141C11.052 19.051 10.837 17.526 11.332 16.026C11.582 15.271 12.112 14.371 12.427 14.021C12.932 13.456 13.487 13.276 13.617 13.501C13.792 13.796 13.007 15.971 12.807 16.461ZM18.357 19.111C18.222 19.181 18.097 19.226 18.037 19.191C17.992 19.166 18.092 19.071 18.092 19.071C18.092 19.071 18.787 18.326 19.062 17.986C19.222 17.786 19.407 17.551 19.607 17.291C19.607 17.316 19.612 17.341 19.612 17.371C19.606 18.266 18.746 18.871 18.356 19.111H18.357ZM22.637 18.136C22.537 18.066 22.552 17.831 22.887 17.101C23.017 16.816 23.317 16.336 23.837 15.876C23.896 16.05 23.928 16.232 23.932 16.416C23.927 17.541 23.122 17.961 22.637 18.136V18.136Z" fill="white"/>
</svg>
