<svg viewBox="0 0 30 30" fill="none" xmlns="http://www.w3.org/2000/svg">
<circle cx="15" cy="15" r="15" fill="white"/>
<path d="M24.2661 14.3061C24.2661 12.6101 23.6561 11.4361 23.1341 10.5221L22.9741 10.2621C22.3401 9.24206 21.7861 8.34606 21.7861 7.30206C21.7861 6.04206 22.7421 4.86606 24.0901 4.86606C24.1301 4.86606 24.1681 4.87006 24.2061 4.87206L24.2681 4.87806C21.7404 2.55634 18.4322 1.26989 15.0001 1.27406C12.7254 1.27289 10.4862 1.8377 8.4842 2.9176C6.48222 3.99749 4.78039 5.55854 3.53206 7.46006C3.85206 7.47006 4.15806 7.47806 4.41606 7.47806C5.85006 7.47806 8.07206 7.30406 8.07206 7.30406C8.81206 7.26006 8.90006 8.34606 8.16006 8.43406C8.16006 8.43406 7.41806 8.52206 6.59006 8.56406L11.5901 23.4321L14.5901 14.4201L12.4501 8.56206C11.7121 8.51806 11.0121 8.43206 11.0121 8.43206C10.2721 8.38806 10.3601 7.25606 11.0981 7.30006C11.0981 7.30006 13.3661 7.47406 14.7141 7.47406C16.1501 7.47406 18.3741 7.30006 18.3741 7.30006C19.1141 7.25606 19.2001 8.34406 18.4601 8.43206C18.4601 8.43206 17.7161 8.51806 16.8901 8.56206L21.8501 23.3161L23.2181 18.7421L23.3261 18.3961C23.8661 16.6761 24.2641 15.4061 24.2641 14.3041L24.2661 14.3061ZM1.27406 15.0001C1.27392 17.5775 1.99942 20.103 3.36752 22.2874C4.73562 24.4719 6.69106 26.227 9.01006 27.3521L2.46006 9.41206C1.67572 11.1705 1.27157 13.0747 1.27406 15.0001V15.0001Z" fill="#21759B"/>
<path d="M11.1221 28.1659L15.2421 16.1999L19.4601 27.7599C19.4881 27.8259 19.5201 27.8879 19.5581 27.9479C16.839 28.9059 13.887 28.9822 11.1221 28.1659V28.1659ZM27.0421 8.41394C27.1021 8.85194 27.1361 9.31994 27.1361 9.82594C27.1361 11.2179 26.8761 12.7839 26.0921 14.7419L21.9001 26.8619C24.9935 25.0647 27.2625 22.1301 28.2234 18.684C29.1844 15.2378 28.7612 11.5526 27.0441 8.41394H27.0421Z" fill="#21759B"/>
</svg>
