<?xml version="1.0" standalone="no"?>
<!DOCTYPE svg PUBLIC "-//W3C//DTD SVG 20010904//EN"
 "http://www.w3.org/TR/2001/REC-SVG-20010904/DTD/svg10.dtd">
<svg version="1.0" xmlns="http://www.w3.org/2000/svg"
 width="512.000000pt" height="512.000000pt" viewBox="0 0 512.000000 512.000000"
 preserveAspectRatio="xMidYMid meet">
<metadata>
Created by potrace 1.14, written by Peter Selinger 2001-2017
</metadata>
<g transform="translate(0.000000,512.000000) scale(0.100000,-0.100000)"
fill="#000000" stroke="none">
<path d="M2347 5109 c-777 -64 -1482 -482 -1917 -1136 -225 -339 -352 -681
-411 -1113 -22 -154 -16 -496 10 -669 26 -170 75 -368 126 -506 436 -1177
1642 -1865 2871 -1640 688 127 1285 526 1677 1120 91 139 208 372 265 530 150
415 188 888 107 1328 -128 692 -525 1288 -1120 1680 -134 88 -368 206 -520
262 -333 123 -723 174 -1088 144z m-80 -2330 c-197 -46 -327 -253 -296 -474
36 -262 193 -449 429 -512 92 -24 408 -24 497 0 266 71 448 331 430 613 -11
176 -115 313 -275 365 l-57 18 146 0 c220 1 363 -32 535 -123 365 -194 588
-590 560 -996 -17 -260 -114 -482 -288 -665 -166 -175 -360 -281 -587 -320
-68 -12 -209 -15 -760 -15 -775 0 -827 5 -1015 81 -177 72 -380 239 -481 397
-209 326 -231 720 -60 1066 135 274 418 491 725 557 68 14 130 18 310 17 153
0 213 -3 187 -9z"/>
</g>
</svg>
