<svg viewBox="0 0 40 75" fill="none" xmlns="http://www.w3.org/2000/svg">
<path d="M19.8987 1.24989C21.0554 0.309541 22.5341 -0.128254 24.0099 0.0326812C28.8659 0.564854 32.9603 2.2746 35.8224 4.97509C38.8525 7.83411 40.3424 11.6725 39.9335 15.5166C39.211 22.2594 32.5178 28.453 21.0974 27.2075C16.6558 26.7263 14.6786 28.1699 14.6114 28.8549C14.533 29.54 16.1629 31.3799 20.6045 31.8668C25.4605 32.399 29.5549 34.1087 32.417 36.8092C35.4471 39.6683 36.9482 43.5067 36.5281 47.3508C35.8056 54.0992 29.1124 60.2871 17.7031 59.0473C14.4658 58.6963 12.7575 59.37 12.0349 59.8059C11.458 60.1626 11.2284 60.5079 11.206 60.7004C11.1388 61.3798 12.7463 63.2197 17.1991 63.7066C18.6764 63.868 20.0297 64.616 20.9614 65.786C21.8931 66.9561 22.3268 68.4523 22.1671 69.9455C22.0075 71.4387 21.2675 72.8067 20.1099 73.7485C18.9524 74.6902 17.4721 75.1286 15.9948 74.9672C4.5856 73.7273 -0.656935 66.2373 0.0655935 59.4832C0.788122 52.7348 7.48132 46.5469 18.9018 47.7924C22.1391 48.149 23.8362 47.4697 24.5588 47.0338C25.1413 46.6827 25.3709 46.3374 25.3877 46.1449C25.4661 45.4599 23.8474 43.6199 19.3946 43.133C7.98541 41.8875 2.74287 34.4031 3.4654 27.6491C4.18793 20.9007 10.8811 14.7071 22.2904 15.9639C25.5277 16.3149 27.2361 15.6355 27.9586 15.1996C28.5355 14.8486 28.7651 14.5033 28.7875 14.3108C28.8547 13.6257 27.236 11.7858 22.7945 11.2989C21.6919 11.1781 20.6496 10.7292 19.7997 10.009C18.9498 9.28887 18.3306 8.3299 18.0204 7.25364C17.7103 6.17738 17.7233 5.03228 18.0576 3.96347C18.392 2.89465 19.0328 1.95023 19.8987 1.24989Z"/>
</svg>
