<svg viewBox="0 0 30 84"  xmlns="http://www.w3.org/2000/svg">
<path d="M21.3115 44.9109C19.0711 49.9286 18.2565 52.2801 22.5151 55.7795C27.2365 59.6678 29.6806 64.056 29.8287 68.833C30.012 76.4194 24.0473 81.9383 23.6729 82.2848L23.663 82.2939C23.1261 82.7568 22.441 83.016 21.7559 83.016C21.5893 83.016 21.4226 82.9975 21.256 82.9605L13.8127 81.5903C12.7388 81.4052 11.8871 80.6275 11.5908 79.5721C11.3131 78.5537 11.6094 77.4243 12.424 76.7022C12.4611 76.6837 16.8493 72.6102 16.7011 67.5555C16.6271 64.5004 14.8681 61.5564 11.4797 58.7791C3.70383 52.3884 6.57741 45.9609 8.68684 41.2426L8.7024 41.2077C10.9428 36.227 12.7018 32.3017 6.73975 26.5804C2.296 22.2662 5.30689e-05 17.6188 5.30689e-05 12.7492C-0.0184626 5.7318 4.81412 0.991795 4.99927 0.788124C5.66584 0.158592 6.59162 -0.119144 7.48037 0.0474963L14.9237 1.41766C15.979 1.60281 16.8123 2.36195 17.127 3.38031C17.4233 4.39867 17.1455 5.49109 16.3864 6.23172C16.3679 6.26875 13.0721 9.56453 13.1091 14.1749C13.1276 17.4337 14.8126 20.7109 18.1083 23.8771C26.9588 32.3758 23.7 39.6339 21.3115 44.9109Z" />
</svg>
