<svg viewBox="0 0 44 69"  xmlns="http://www.w3.org/2000/svg">
<path d="M38.7896 18.9303C35.3523 15.5919 30.6014 13.4074 25.4118 12.78C25.3391 12.7713 25.2676 12.7707 25.1954 12.7647C20.5216 12.1204 17.3553 9.15133 17.6329 6.8637C18.0405 3.50455 15.6435 0.451473 12.2799 0.0444692C8.91907 -0.359261 5.8582 2.03094 5.45059 5.38954C4.28842 14.9694 12.4067 23.5667 23.9333 24.9617C23.9978 24.9694 24.0606 24.9677 24.1245 24.9732C26.5516 25.3033 28.7705 26.293 30.2332 27.7137C30.8555 28.3182 31.8756 29.5337 31.7128 30.8786C31.5499 32.2223 30.2681 33.1591 29.519 33.5978C27.7127 34.6551 25.243 35.0888 22.7411 34.7855C17.5504 34.1564 12.4154 35.145 8.27925 37.5674C3.6721 40.2648 0.694826 44.5716 0.110737 49.382C-1.05198 58.9624 7.06626 67.5591 18.5929 68.9547C18.8437 68.9853 19.0928 69 19.3393 69C22.3979 69 25.0452 66.7184 25.4222 63.6102C25.8303 60.2511 23.4333 57.198 20.0698 56.791C15.2769 56.211 12.0105 53.1792 12.2925 50.8567C12.4558 49.5124 13.7371 48.5756 14.4868 48.137C16.2926 47.0796 18.7634 46.6459 21.2642 46.9492C22.2843 47.0731 23.3017 47.1336 24.3103 47.1336C28.4339 47.1336 32.4029 46.1139 35.726 44.1673C40.3337 41.47 43.3104 37.1631 43.8945 32.3527C44.4786 27.5412 42.6181 22.649 38.7896 18.9303Z" />
</svg>
