<svg viewBox="0 0 34 65"  xmlns="http://www.w3.org/2000/svg">
<path d="M25.8375 64.1518C16.1542 66.9036 9.47454 62.561 7.88438 56.8547C6.29421 51.1533 9.73957 43.9353 19.418 41.1933C23.1971 40.1261 24.3308 38.308 24.1786 37.73C24.0118 37.1421 22.0928 36.1886 18.3235 37.2557C8.6451 40.0026 1.96544 35.655 0.375276 29.9487C-1.2247 24.2424 2.23047 17.0342 11.9138 14.2923C15.688 13.2202 16.8266 11.3971 16.6597 10.8191C16.4978 10.246 14.5837 9.28259 10.8095 10.3497C10.1806 10.5556 9.5168 10.6313 8.85806 10.5725C8.19932 10.5136 7.5592 10.3213 6.97613 10.0072C6.39306 9.69303 5.87907 9.26351 5.46504 8.7444C5.051 8.2253 4.74545 7.62731 4.56674 6.98635C4.38803 6.3454 4.33985 5.6747 4.42509 5.01453C4.51033 4.35436 4.72723 3.71834 5.06277 3.14467C5.39831 2.571 5.84556 2.07151 6.37766 1.67619C6.90977 1.28087 7.51575 0.99788 8.15922 0.844218C17.8327 -1.89776 24.5173 2.43506 26.1173 8.15122C27.7074 13.8526 24.2572 21.0607 14.5739 23.8126C10.7948 24.8798 9.66104 26.6979 9.82791 27.2759C9.98496 27.8539 11.8991 28.8173 15.6683 27.7502C25.3565 25.0033 32.0313 29.341 33.6264 35.0572C35.2214 40.7536 31.7712 47.9618 22.083 50.7136C18.3137 51.7758 17.18 53.6088 17.337 54.1769C17.5039 54.7599 19.4131 55.7183 23.1872 54.6561C24.4381 54.3024 25.7774 54.4633 26.9104 55.1035C28.0435 55.7437 28.8774 56.8108 29.2289 58.07C29.5803 59.3292 29.4205 60.6774 28.7845 61.8179C28.1485 62.9585 27.0884 63.798 25.8375 64.1518Z" />
</svg>
