<svg viewBox="0 0 31 69"  xmlns="http://www.w3.org/2000/svg">
<path d="M18.6073 2.19479C15.7297 0.825535 12.2576 0.461217 8.82993 1.16914C6.83011 1.58113 5.53013 3.52881 5.93495 5.51689C6.33999 7.50448 8.29234 8.78012 10.2963 8.36623C12.1179 7.98998 13.9696 8.1584 15.3768 8.82759C16.0073 9.12778 17.0996 9.8011 17.3316 10.9395C17.5636 12.0779 16.8227 13.1297 16.3603 13.6554C15.3284 14.8291 13.6924 15.7165 11.8706 16.0932C4.42565 17.6319 -0.623065 23.8432 0.618723 29.9423C1.86109 36.0407 8.9301 39.7516 16.3767 38.2142C16.4156 38.2061 16.4514 38.1915 16.4899 38.1822C20.1183 37.4774 23.0414 38.9673 23.4096 40.7752C23.6415 41.9133 22.9006 42.9655 22.4383 43.4911C21.4063 44.6644 19.7708 45.5532 17.9486 45.9289C10.5037 47.4668 5.45492 53.6789 6.69671 59.778C7.93908 65.8764 15.0081 69.5873 22.4547 68.05C22.6362 68.0122 22.8124 67.9621 22.9819 67.9004C24.6794 67.2825 25.7177 65.5095 25.3497 63.7022C24.9448 61.715 22.9924 60.4393 20.9884 60.8529C17.3061 61.6132 14.3251 60.1069 13.9532 58.2799C13.581 56.4523 15.7303 53.8844 19.4146 53.1261C20.2348 52.9568 21.034 52.7297 21.8039 52.4495C24.2485 51.5598 26.397 50.1332 28.0017 48.3084C30.3259 45.6656 31.2969 42.3739 30.6659 39.2768C29.4236 33.1784 22.3546 29.4675 14.9079 31.0049C14.8589 31.0151 14.8124 31.03 14.7641 31.0421C11.1501 31.7324 8.24222 30.2466 7.87484 28.4443C7.50265 26.6167 9.65294 24.0492 13.3362 23.2905C14.1568 23.1211 14.9557 22.8941 15.7255 22.6139C18.1705 21.7241 20.3187 20.2976 21.9234 18.4728C24.2475 15.8301 25.2185 12.5383 24.5876 9.44124C23.9566 6.34413 21.777 3.70302 18.6073 2.19479Z" />
</svg>
