<svg viewBox="0 0 32 79" xmlns="http://www.w3.org/2000/svg">
<path d="M27.4845 1.31858C26.8978 0.649223 26.0309 0.326835 25.2008 0.415188L18.1168 1.15172C17.1159 1.25639 16.28 1.92419 15.9309 2.84576C15.5847 3.80685 15.801 4.8752 16.4801 5.63522C16.498 5.66608 19.3864 9.03886 19.1551 13.3899C18.9778 16.5165 17.2198 19.5065 13.9233 22.2944C5.15575 29.7222 7.82766 36.882 9.7905 42.0853C11.6408 47.0244 12.2822 49.3492 8.08616 52.3478C3.42125 55.6789 0.882514 59.6751 0.533348 64.2382C-0.045019 71.5258 5.38927 77.2965 5.6097 77.5396C6.18469 78.154 7.01881 78.4542 7.84889 78.3658L14.9329 77.6293C15.3134 77.5947 15.6645 77.4744 15.9648 77.3009C16.3133 77.1006 16.6106 76.8216 16.834 76.4849C17.0574 76.1482 17.2013 75.7626 17.2546 75.3573C17.308 74.952 17.2695 74.5376 17.142 74.1453C17.0146 73.753 16.8015 73.3931 16.5189 73.0927C16.4922 73.0464 12.5746 68.8277 12.9699 64.0323C13.2179 61.1322 15.0133 58.4498 18.3467 56.0727C26.0385 50.562 23.6412 44.19 21.8972 39.5393C20.0647 34.6311 18.5954 30.7682 24.5176 25.7649C28.957 22.0085 31.3443 17.75 31.6011 13.0962C31.9399 6.39949 27.6782 1.51534 27.4845 1.31858Z" />
</svg>
