<svg viewBox="0 0 44 63" xmlns="http://www.w3.org/2000/svg">
<path d="M30.93 56.2963C30.6822 55.6552 30.318 55.304 29.9315 54.8885C25.6168 50.5157 22.7462 45.6905 21.5602 41.0022C30.5815 43.6022 37.9067 40.1283 40.4495 36.4031C40.5618 36.2693 40.6928 36.0829 40.809 35.884C44.4828 30.509 43.7745 24.4661 39.015 20.4723C37.8399 19.4864 36.4334 18.6253 34.7358 17.8392C32.6027 16.8472 26.4192 14.0068 16.0486 20.9893C14.5054 16.0924 14.6345 10.5015 16.501 4.86373C16.6778 4.35097 16.8283 3.93005 16.7222 3.27111C16.5142 1.79718 15.012 0.536663 13.5095 0.57534L4.85947 0.885789C3.37182 0.936947 2.31692 2.10353 2.41682 3.55519C2.39578 3.12718 2.45246 2.87836 2.42243 2.94436C-1.24999 13.9059 0.696458 24.6353 7.71793 32.5787C5.54944 41.8386 9.19374 52.0549 18.0388 61.027C18.1651 61.1785 18.2989 61.2908 18.4476 61.4156C19.2062 62.0521 20.2566 62.3408 21.2155 62.074L29.3237 59.7814C30.779 59.3156 31.4921 57.771 30.93 56.2963ZM27.2092 31.038C25.6744 30.6621 24.2182 30.1925 23.0117 29.7273C23.7155 28.7676 24.636 27.6706 25.7277 26.6717C27.0029 25.3936 30.1864 25.466 31.8077 26.8264C32.2092 27.1634 32.4876 27.5565 32.6428 28.0059C32.9644 28.8913 32.805 29.8062 32.2365 30.4234C31.3499 31.3893 29.571 31.6064 27.2092 31.038Z"/>
</svg>
