<svg xmlns="http://www.w3.org/2000/svg" viewBox="0 0 600 600" fill="none">
<circle cx="300" cy="300" r="300" fill="#0B0B0C"/>
<path d="M493.275 203H106V396.095H493.275V203Z" fill="#61F5E4"/>
<path d="M225.406 379.023C263.885 379.023 287.515 362.735 287.515 336.173C287.515 312.366 267.712 298.305 237.295 296.717V295.359C263.613 293.771 280.729 281.787 280.729 260.898C280.729 236.182 256.881 220.315 219.976 220.315H139.679V379.023H225.406ZM174.1 239.073H213.258C233.061 239.073 245.656 248.832 245.656 264.468C245.656 280.103 233.088 289.862 213.258 289.862H174.1V239.073ZM174.1 307.1H219.325C239.128 307.1 251.737 317.524 251.737 333.621C251.737 349.502 239.128 359.478 219.325 359.478H174.1V307.1Z" fill="#0B0B0C"/>
<path d="M457.187 220.22H422.074V289.821H339.049V220.22H304.167V379.022H339.049V307.086H422.074V379.022H457.187V220.22Z" fill="#0B0B0C"/>
</svg>
