<svg  viewBox="0 0 18 14" fill="none" xmlns="http://www.w3.org/2000/svg">
<path d="M1.70711 6.29289C1.31658 5.90237 0.683418 5.90237 0.292893 6.29289C-0.0976311 6.68342 -0.0976311 7.31658 0.292893 7.70711L1.70711 6.29289ZM7 13L6.29289 13.7071C6.49156 13.9058 6.76464 14.0117 7.04531 13.999C7.32599 13.9862 7.58835 13.856 7.76822 13.6402L7 13ZM17.7682 1.64018C18.1218 1.21591 18.0645 0.585343 17.6402 0.231779C17.2159 -0.121785 16.5853 -0.0644613 16.2318 0.359816L17.7682 1.64018ZM0.292893 7.70711L6.29289 13.7071L7.70711 12.2929L1.70711 6.29289L0.292893 7.70711ZM7.76822 13.6402L17.7682 1.64018L16.2318 0.359816L6.23178 12.3598L7.76822 13.6402Z" fill="black"/>
</svg>
