<svg viewBox="0 0 65 65" fill="none" xmlns="http://www.w3.org/2000/svg">
<path d="M50.6191 2.31577L32.0271 20.9088C25.8301 14.7138 19.6311 8.51277 13.4331 2.31577C6.26308 -4.85423 -4.85092 6.26377 2.31308 13.4358C8.51208 19.6288 14.7131 25.8308 20.9051 32.0278C14.7102 38.2276 8.51291 44.4249 2.31308 50.6198C-4.85092 57.7878 6.26408 68.9028 13.4331 61.7398C19.6301 55.5408 25.8291 49.3408 32.0261 43.1458L50.6181 61.7398C57.7881 68.9078 68.9051 57.7888 61.7381 50.6198C55.5391 44.4208 49.3421 38.2238 43.1411 32.0258C49.3411 25.8268 55.5381 19.6278 61.7381 13.4298C68.9061 6.26376 57.7891 -4.85423 50.6181 2.31977" fill="black"/>
</svg>
