<svg viewBox="0 0 176 216" fill="none" xmlns="http://www.w3.org/2000/svg">
<path d="M143.89 137.34C141.816 148.927 136.241 159.601 127.916 167.923C119.592 176.246 108.917 181.818 97.33 183.89C96.89 183.96 96.4454 183.997 96 184C93.9933 184 92.06 183.245 90.5837 181.886C89.1073 180.527 88.1957 178.662 88.0295 176.663C87.8634 174.663 88.4549 172.674 89.6868 171.089C90.9186 169.505 92.7009 168.442 94.68 168.11C111.25 165.32 125.31 151.26 128.12 134.66C128.475 132.568 129.647 130.702 131.378 129.474C133.109 128.245 135.257 127.755 137.35 128.11C139.443 128.466 141.308 129.638 142.537 131.369C143.765 133.1 144.255 135.248 143.9 137.34H143.89ZM176 128C176 151.339 166.729 173.723 150.225 190.226C133.722 206.729 111.339 216 88 216C64.6609 216 42.2778 206.729 25.7746 190.226C9.2714 173.723 0 151.339 0 128C0 100.08 11 71.5303 32.66 43.1503C33.3456 42.2517 34.2139 41.5086 35.2076 40.9699C36.2013 40.4312 37.2979 40.1092 38.425 40.0251C39.5522 39.941 40.6844 40.0967 41.7471 40.482C42.8097 40.8673 43.7786 41.4734 44.59 42.2603L68.71 65.6703L90.71 5.26033C91.1495 4.05547 91.8723 2.97394 92.8174 2.10692C93.7624 1.2399 94.9021 0.612807 96.1403 0.278506C97.3785 -0.0557964 98.6789 -0.0875068 99.9319 0.186049C101.185 0.459604 102.354 1.03041 103.34 1.85033C125.21 20.0003 176 68.5503 176 128ZM160 128C160 81.9103 124.21 42.0803 101.79 21.6703L79.52 82.7403C79.0629 83.9946 78.2992 85.1146 77.2985 85.9982C76.2978 86.8818 75.0919 87.5009 73.7906 87.7992C72.4894 88.0974 71.1342 88.0652 69.8485 87.7056C68.5629 87.346 67.3877 86.6704 66.43 85.7403L40.06 60.1603C24.09 83.2103 16 106 16 128C16 147.096 23.5857 165.409 37.0883 178.912C50.5909 192.415 68.9044 200 88 200C107.096 200 125.409 192.415 138.912 178.912C152.414 165.409 160 147.096 160 128Z" fill="black"/>
</svg>
