<svg viewBox="0 0 24 24" fill="none" xmlns="http://www.w3.org/2000/svg">
<path fill-rule="evenodd" clip-rule="evenodd" d="M2.96792e-07 2.00509C2.96792e-07 1.47331 0.21125 0.963308 0.587278 0.58728C0.963305 0.211253 1.47331 2.67307e-06 2.00509 2.67307e-06H21.9927C22.2563 -0.000427747 22.5173 0.0511258 22.7609 0.151712C23.0045 0.252298 23.2258 0.399941 23.4123 0.586188C23.5987 0.772435 23.7466 0.993628 23.8475 1.2371C23.9483 1.48058 24.0001 1.74156 24 2.00509V21.9927C24.0003 22.2563 23.9486 22.5174 23.8479 22.761C23.7472 23.0046 23.5994 23.2259 23.4131 23.4123C23.2268 23.5988 23.0055 23.7466 22.762 23.8475C22.5184 23.9483 22.2574 24.0001 21.9938 24H2.00509C1.74169 24 1.48086 23.9481 1.23752 23.8473C0.994184 23.7464 0.773096 23.5986 0.586892 23.4123C0.400688 23.226 0.253017 23.0049 0.152316 22.7615C0.0516145 22.5181 -0.000143013 22.2572 2.96792e-07 21.9938V2.00509ZM9.49964 9.15055H12.7495V10.7825C13.2185 9.84437 14.4185 9 16.2218 9C19.6789 9 20.4982 10.8687 20.4982 14.2975V20.6487H16.9996V15.0785C16.9996 13.1258 16.5305 12.024 15.3393 12.024C13.6865 12.024 12.9993 13.212 12.9993 15.0785V20.6487H9.49964V9.15055ZM3.49964 20.4993H6.99927V9H3.49964V20.4982V20.4993ZM7.5 5.24946C7.5066 5.5491 7.45328 5.84704 7.34317 6.1258C7.23306 6.40456 7.06838 6.65851 6.8588 6.87276C6.64921 7.08702 6.39894 7.25725 6.12268 7.37346C5.84641 7.48968 5.54972 7.54955 5.25 7.54955C4.95028 7.54955 4.65359 7.48968 4.37732 7.37346C4.10106 7.25725 3.85079 7.08702 3.6412 6.87276C3.43162 6.65851 3.26694 6.40456 3.15683 6.1258C3.04672 5.84704 2.9934 5.5491 3 5.24946C3.01295 4.6613 3.25569 4.10159 3.67624 3.69021C4.09678 3.27882 4.6617 3.04846 5.25 3.04846C5.8383 3.04846 6.40322 3.27882 6.82376 3.69021C7.24431 4.10159 7.48705 4.6613 7.5 5.24946V5.24946Z" fill="white"/>
</svg>
