<svg width="20" height="20" viewBox="0 0 20 20" fill="none" xmlns="http://www.w3.org/2000/svg">
<path d="M11.5443 8.45645C10.7252 7.63768 9.61445 7.17773 8.4563 7.17773C7.29815 7.17773 6.18741 7.63768 5.3683 8.45645L2.2793 11.5444C1.46018 12.3636 1 13.4745 1 14.6329C1 15.7914 1.46018 16.9023 2.2793 17.7215C3.09842 18.5406 4.20939 19.0007 5.3678 19.0007C6.52621 19.0007 7.63718 18.5406 8.4563 17.7215L10.0003 16.1775" stroke="black" stroke-width="2" stroke-linecap="round" stroke-linejoin="round"/>
<path d="M8.4563 11.5443C9.27541 12.3631 10.3861 12.823 11.5443 12.823C12.7024 12.823 13.8132 12.3631 14.6323 11.5443L17.7213 8.4563C18.5404 7.63718 19.0006 6.52621 19.0006 5.3678C19.0006 4.20939 18.5404 3.09842 17.7213 2.2793C16.9022 1.46018 15.7912 1 14.6328 1C13.4744 1 12.3634 1.46018 11.5443 2.2793L10.0003 3.8233" stroke="black" stroke-width="2" stroke-linecap="round" stroke-linejoin="round"/>
</svg>
