<svg  viewBox="0 0 226 226" fill="none" xmlns="http://www.w3.org/2000/svg">
<mask id="mask0_727_31" style="mask-type:alpha" maskUnits="userSpaceOnUse" x="0" y="0" width="226" height="226">
<circle cx="113" cy="113" r="113" fill="#EC1D1D"/>
</mask>
<g mask="url(#mask0_727_31)">
<path d="M115.283 -6.84848C40.2669 -6.84848 -20.5454 53.9639 -20.5454 128.98V197.177C-20.5454 201.572 -16.982 205.135 -12.5867 205.135H5.02851V228.283H117.566H223.717C223.717 228.283 226 228.283 225.537 228.283V205.135H243.152C247.548 205.135 251.111 201.572 251.111 197.177V128.98C251.111 53.9639 190.299 -6.84848 115.283 -6.84848Z" fill="#855B52"/>
<path d="M225.752 228.283V205.135H243.219C247.578 205.135 251.111 201.572 251.111 197.177V128.98C251.111 53.9639 190.81 -6.84848 116.424 -6.84848V228.283H167.788H225.752Z" fill="#78493C"/>
<path d="M87.8576 70.7052C92.2531 70.7052 95.8163 67.142 95.8163 62.7466C95.8163 58.3511 92.2531 54.7879 87.8576 54.7879C83.4622 54.7879 79.8989 58.3511 79.8989 62.7466C79.8989 67.142 83.4622 70.7052 87.8576 70.7052Z" fill="#2F3030"/>
<path d="M140.363 70.7052C144.758 70.7052 148.321 67.142 148.321 62.7466C148.321 58.3511 144.758 54.7879 140.363 54.7879C135.967 54.7879 132.404 58.3511 132.404 62.7466C132.404 67.142 135.967 70.7052 140.363 70.7052Z" fill="#2F3030"/>
<path d="M135.211 102.727H123.38C114.141 102.727 114.965 102.727 108.434 102.727C101.904 102.727 107.692 102.727 123.38 102.727H87.8888C62.0037 102.727 41.0908 123.678 41.0908 149.525C41.0908 175.417 62.043 196.323 87.8888 196.323H135.211C161.103 196.323 182.009 175.367 182.009 149.525C182.009 123.637 161.054 102.727 135.211 102.727Z" fill="#E0E0E2"/>
<path d="M140.158 196.528C166.13 196.528 187.1 175.526 187.1 149.628C187.1 123.682 166.081 102.727 140.158 102.727H128.291C116.424 102.727 122.975 102.727 116.424 102.727V196.529L140.158 196.528Z" fill="#CCCED0"/>
<path d="M120.683 147.636H113.029C90.8306 147.636 86.7474 127.33 86.7474 121.81C86.7474 110.396 94.2331 102.727 105.375 102.727H128.337C139.479 102.727 146.965 110.396 146.965 121.81C146.964 128.121 142.279 147.636 120.683 147.636Z" fill="#57342D"/>
<path d="M116.424 147.471H120.312C142.254 147.471 147.014 128.028 147.014 121.74C147.014 110.368 139.409 102.727 128.089 102.727H116.424V147.471Z" fill="#331D1D"/>
</g>
</svg>
