<svg  viewBox="0 0 19 16" fill="none" xmlns="http://www.w3.org/2000/svg">
<path d="M3.70703 0.29298C3.51843 0.110822 3.26583 0.0100274 3.00363 0.0123059C2.74143 0.0145843 2.49062 0.119753 2.30521 0.305161C2.11981 0.490569 2.01464 0.741382 2.01236 1.00358C2.01008 1.26578 2.11087 1.51838 2.29303 1.70698L9.21403 8.62898C9.26403 8.69098 9.31903 8.74698 9.38203 8.79598L16.292 15.707C16.3849 15.7999 16.4951 15.8736 16.6164 15.9239C16.7378 15.9742 16.8678 16.0001 16.9992 16.0002C17.1305 16.0002 17.2606 15.9744 17.382 15.9242C17.5033 15.874 17.6136 15.8003 17.7065 15.7075C17.7994 15.6146 17.8732 15.5044 17.9235 15.3831C17.9738 15.2617 17.9997 15.1317 17.9997 15.0003C17.9998 14.869 17.974 14.7389 17.9237 14.6175C17.8735 14.4962 17.7999 14.3859 17.707 14.293L17.032 13.618C18.4137 11.8882 19.1094 9.70986 18.9862 7.49941C18.863 5.28897 17.9294 3.20148 16.364 1.63598C16.2718 1.54047 16.1614 1.46429 16.0394 1.41188C15.9174 1.35947 15.7862 1.33188 15.6534 1.33073C15.5207 1.32958 15.389 1.35488 15.2661 1.40516C15.1432 1.45544 15.0315 1.52969 14.9376 1.62358C14.8437 1.71748 14.7695 1.82913 14.7192 1.95203C14.6689 2.07492 14.6436 2.2066 14.6448 2.33938C14.6459 2.47216 14.6735 2.60338 14.7259 2.72538C14.7783 2.84739 14.8545 2.95773 14.95 3.04998C16.1404 4.24043 16.8619 5.81989 16.9826 7.49903C17.1033 9.17817 16.6149 10.8446 15.607 12.193L14.172 10.758C14.8075 9.79624 15.0913 8.64454 14.9754 7.49767C14.8595 6.3508 14.351 5.27915 13.536 4.46398C13.3483 4.27621 13.0936 4.17072 12.828 4.17072C12.5625 4.17072 12.3078 4.27621 12.12 4.46398C11.9323 4.65175 11.8268 4.90643 11.8268 5.17198C11.8268 5.43753 11.9323 5.69221 12.12 5.87998C12.5591 6.31858 12.8513 6.88254 12.9564 7.49416C13.0616 8.10578 12.9744 8.73495 12.707 9.29498L10.715 7.30298C10.7091 7.2969 10.7031 7.2909 10.697 7.28498L3.70703 0.29398V0.29298ZM3.23803 6.18698C3.30646 5.93065 3.27025 5.65763 3.13738 5.42799C3.00452 5.19836 2.78586 5.03091 2.52953 4.96248C2.2732 4.89405 2.00019 4.93026 1.77055 5.06313C1.54091 5.196 1.37346 5.41465 1.30503 5.67098C0.896409 7.19707 0.8967 8.80384 1.30588 10.3298C1.71505 11.8557 2.5187 13.2471 3.63603 14.364C3.72894 14.4568 3.83923 14.5305 3.9606 14.5807C4.08197 14.6309 4.21204 14.6567 4.34339 14.6567C4.47473 14.6566 4.60479 14.6307 4.72612 14.5804C4.84745 14.5301 4.95769 14.4564 5.05053 14.3635C5.14338 14.2706 5.21701 14.1603 5.26723 14.0389C5.31746 13.9175 5.34328 13.7875 5.34324 13.6561C5.34319 13.5248 5.31727 13.3947 5.26696 13.2734C5.21666 13.1521 5.14294 13.0418 5.05003 12.949C4.18078 12.0803 3.55565 10.9979 3.23756 9.81089C2.91947 8.62384 2.91963 7.37395 3.23803 6.18698V6.18698ZM7.40003 9.49998C7.33752 9.38047 7.25147 9.27485 7.14708 9.18946C7.04269 9.10407 6.9221 9.04068 6.79257 9.0031C6.66304 8.96553 6.52725 8.95454 6.39337 8.9708C6.25948 8.98706 6.13027 9.03024 6.0135 9.09774C5.89674 9.16523 5.79483 9.25565 5.71392 9.36355C5.633 9.47144 5.57475 9.5946 5.54266 9.72559C5.51057 9.85659 5.50532 9.99272 5.52721 10.1258C5.5491 10.2589 5.59768 10.3862 5.67003 10.5C5.88403 10.871 6.15003 11.22 6.46503 11.535C6.65363 11.7171 6.90624 11.8179 7.16843 11.8157C7.43063 11.8134 7.68144 11.7082 7.86685 11.5228C8.05226 11.3374 8.15743 11.0866 8.15971 10.8244C8.16198 10.5622 8.06119 10.3096 7.87903 10.121C7.68803 9.92998 7.52903 9.72098 7.40103 9.49898L7.40003 9.49998Z" fill="currentColor"/>
</svg>
