<svg  viewBox="0 0 513 513" fill="none" xmlns="http://www.w3.org/2000/svg">
<path d="M440 6.4999L24 246.4C-10.4 266.3 -7.09999 317.2 29.7 332.3L144 379.6V464C144 510.4 203.2 529.5 230.6 492.6L274.4 433.5L386.3 479.7C392.2 482.1 398.4 483.3 404.6 483.3C412.8 483.3 420.9 481.2 428.2 477.1C441 469.9 449.8 457.1 452.1 442.6L511.5 55.3999C517.6 15.2999 474.6 -13.4001 440 6.4999V6.4999ZM192 464V399.4L228.6 414.5L192 464ZM404.6 435.3L250.8 371.8L391 169.5C401.7 154 381.5 136 367.3 148.3L155.8 332.6L48 288L464 47.9999L404.6 435.3Z" fill="black"/>
</svg>
