<?xml version="1.0" encoding="UTF-8"?>
<svg xmlns="http://www.w3.org/2000/svg" width="65.535" height="95.843" viewBox="0 0 65.535 95.843"><g id="Group_741" data-name="Group 741" transform="translate(-927 -70)"><path id="Path_836" data-name="Path 836" d="M372.222,111.92a33.186,33.186,0,0,0,0-8.352l-3.4-.063a29.2,29.2,0,0,0-1.776-6.644l2.914-1.755a32.717,32.717,0,0,0-4.182-7.23L362.8,89.522a29.6,29.6,0,0,0-4.861-4.861l1.646-2.977a32.718,32.718,0,0,0-7.23-4.182L350.6,80.417a29.2,29.2,0,0,0-6.644-1.776l-.063-3.4a33.186,33.186,0,0,0-8.352,0l-.063,3.4a29.188,29.188,0,0,0-6.644,1.776L327.081,77.5a32.718,32.718,0,0,0-7.23,4.182l1.646,2.977a29.6,29.6,0,0,0-4.861,4.861l-2.977-1.646a32.719,32.719,0,0,0-4.182,7.23l2.914,1.755a29.2,29.2,0,0,0-1.776,6.644l-3.4.063a33.186,33.186,0,0,0,0,8.352l3.4.063a29.19,29.19,0,0,0,1.776,6.644l-2.914,1.755a32.719,32.719,0,0,0,4.182,7.23l2.977-1.646a29.6,29.6,0,0,0,4.861,4.861l-1.646,2.977a32.718,32.718,0,0,0,7.23,4.182l1.755-2.914a29.188,29.188,0,0,0,6.644,1.776l.063,3.4a33.188,33.188,0,0,0,8.352,0l.063-3.4a29.2,29.2,0,0,0,6.644-1.776l1.755,2.914a32.718,32.718,0,0,0,7.23-4.182l-1.646-2.977a29.6,29.6,0,0,0,4.861-4.861l2.977,1.646a32.717,32.717,0,0,0,4.182-7.23l-2.914-1.755a29.187,29.187,0,0,0,1.776-6.644Z" transform="translate(620.049 -4.976)" fill="#003c7d"/><path id="Path_837" data-name="Path 837" d="M345.49,89.149a24.366,24.366,0,1,0,24.365,24.365A24.366,24.366,0,0,0,345.49,89.149Zm0,47.051a22.685,22.685,0,1,1,22.685-22.685A22.685,22.685,0,0,1,345.49,136.2Z" transform="translate(614.876 -10.747)" fill="#fff"/><path id="Path_838" data-name="Path 838" d="M368.255,121.155a19.109,19.109,0,0,1-3.908-8.727,6.689,6.689,0,0,0,4.394.51c-4.867-2.8-6.774-6.752-6.774-10.937h0a3.733,3.733,0,1,0-5.865,3.065,7.668,7.668,0,0,1-4.474,3.454c-.241-1.012-.37-2.055-.37-2.055l-1.851-.822s1.714-.5,1.714-.48c-2.224-3.118-1.029-5.414-1.029-5.414s.657-.091,2.193-2.125c-2.337.078-2.889-4.661-6.716-1.988-1.009-.327-2.246-.363-3.427,1.85.143.037,2.925-.769,3.5.754-.629-.675-2.065-.505-2.057-.512,1.663.714,3.688,2.946.44,10.724a7.66,7.66,0,0,1-4.256-3.387A3.733,3.733,0,1,0,333.9,102h0c0,4.185-1.906,8.134-6.774,10.937a6.689,6.689,0,0,0,4.394-.51,19.109,19.109,0,0,1-3.908,8.727,9.7,9.7,0,0,0,5.483-4.066,36.7,36.7,0,0,1-3.073,9.713c4.661-1.714,6.363-9.849,6.363-9.849a70.527,70.527,0,0,1-1.3,8.087c3.181-2.579,3.971-8.741,3.971-8.741a41.169,41.169,0,0,1-.338,5.658c2.182-1.2,2.673-6.374,2.673-6.374a22.362,22.362,0,0,1,.069,4.935c2.295-1.729,2.125-5.826,2.125-5.826a35.354,35.354,0,0,1,1.834,5.542c-1.295.062-6.131.517-7.6,3.884,0,0,.558.321,1.272.73a9.51,9.51,0,0,1-2.008,2.19c-.646.135-1.683-.769-2.183-.74s-1.372.182-1.382,1.6a.688.688,0,0,1,1.141-.207c.148.194,1.475-.22,1.7.3.167.4-2.5.3-2.964.6s-.726.651-.352,2.025c.223-.892.535-.572.878-.579s.962-.937,2.269-.734c.266.2-1.377.707-1.547,1.375s.164,1.8.78,1.879c-.344-.74.027-1.047.408-1.092.713-.055.881-1.909,2.276-2.176.461-.121.643,1.009.9,1.184s.923.275.67,1.195c.815-.855.8-1.514.6-2.02s-1.482-1.164-1.606-1.534a10.6,10.6,0,0,1,1.85-2.446c.922.532,1.725,1,1.723,1.01a3.089,3.089,0,0,1,3.83-2.508c.028.371.047.742.053,1.111l-.034.035c-2.673,0-2.57,2.81-.206,2.81-.206.857-2.159,2.6-3.427-.411-3.05,3.221,1.1,6.511,3.907,5.072-.274,1.816,1.577,4.044,1.577,4.044s1.85-2.228,1.576-4.044c2.81,1.439,6.957-1.851,3.907-5.072-1.268,3.016-3.221,1.268-3.427.411,2.365,0,2.467-2.81-.206-2.81l-.034-.035c.006-.369.024-.74.053-1.111a3.089,3.089,0,0,1,3.83,2.508c0-.012.8-.478,1.723-1.01a10.6,10.6,0,0,1,1.85,2.446c-.124.37-1.4,1.027-1.606,1.534s-.22,1.164.6,2.02c-.253-.919.413-1.02.67-1.195s.439-1.3.9-1.184c1.395.267,1.563,2.12,2.276,2.176.381.045.753.352.409,1.092.615-.08.948-1.211.779-1.879s-1.813-1.174-1.547-1.375c1.307-.2,1.925.727,2.269.734s.655-.313.879.579c.373-1.374.108-1.73-.352-2.025s-3.131-.2-2.964-.6c.228-.523,1.554-.109,1.7-.3a.688.688,0,0,1,1.141.207c-.011-1.416-.882-1.569-1.382-1.6s-1.537.876-2.183.74a9.51,9.51,0,0,1-2.008-2.19c.714-.41,1.267-.727,1.272-.73-1.471-3.367-6.307-3.822-7.6-3.884a35.35,35.35,0,0,1,1.834-5.542s-.17,4.1,2.125,5.826a22.36,22.36,0,0,1,.069-4.935s.491,5.174,2.673,6.374a41.26,41.26,0,0,1-.338-5.658s.79,6.162,3.971,8.741a70.527,70.527,0,0,1-1.3-8.087s1.7,8.136,6.363,9.849a36.7,36.7,0,0,1-3.073-9.713A9.7,9.7,0,0,0,368.255,121.155ZM349.938,97.53a5.534,5.534,0,0,1-1.7-.622.755.755,0,1,1-1.28-.743,3.085,3.085,0,0,0-1.028-.177C347.8,95.351,348.581,96.976,349.938,97.53Zm9.813,5.932a1.178,1.178,0,0,1-.9-.12c.394,3.176-1.928,10.352-10.916,10.388-8.989-.037-11.311-7.212-10.917-10.388a1.182,1.182,0,1,1-.157-2.122,1.183,1.183,0,1,1,1.832.491,1.2,1.2,0,0,1,.136.027,1.183,1.183,0,1,1-1.346,1.708c.147,3.568,2.969,8.391,10.452,8.42,7.482-.029,10.3-4.852,10.451-8.42a1.183,1.183,0,1,1-1.346-1.708,1.223,1.223,0,0,1,.136-.027,1.183,1.183,0,1,1,1.832-.491,1.17,1.17,0,0,1,.131-.043,1.183,1.183,0,0,1,.612,2.285Z" transform="translate(611.875 -13.056)" fill="#fff"/><path id="Path_839" data-name="Path 839" d="M310.025,202.535h-3.074v8.319h1.456V208.37h1.663a2.921,2.921,0,0,0-.046-5.835Zm-.173,4.576h-1.445v-3.316h1.445a1.668,1.668,0,0,1,0,3.316Zm15.543,3.744v-6.309h-1.422v6.309Zm.012-8.319H323.95v1.005h1.456Zm-8.708,8.458a3.3,3.3,0,1,0-3.166-3.293A2.968,2.968,0,0,0,316.7,210.993Zm.011-5.361c1.2,0,1.7.774,1.7,2.068s-.5,2.08-1.7,2.08-1.722-.774-1.722-2.08S315.5,205.632,316.71,205.632Zm5.775-3.1h-1.41v8.319h1.41Zm7.737,8.261v-1.213a3.433,3.433,0,0,1-.9.15c-.4,0-.786-.162-.786-.693v-3.282h1.93v-1.2h-1.918v-1.4h-.462l-1.791,1.721v.878h.82v3.767c0,1.2.705,1.456,1.491,1.456A9.64,9.64,0,0,0,330.222,210.8Zm27.773.058h1.421v-6.309H358Zm-.023-7.314h1.456v-1.005h-1.456Zm6.988,5.141-.624-1.074a3.109,3.109,0,0,0,1.537-2.877v-.184h-1.421v.266a2.087,2.087,0,0,1-1.363,2.138l-.786.323v-4.737h-1.41v8.319h1.41V208.5l.751-.312.635,1.167a2.543,2.543,0,0,0,2.253,1.583,2.046,2.046,0,0,0,.462-.034V209.63A1.62,1.62,0,0,1,364.96,208.682Zm-10.253-4.275a4.852,4.852,0,0,0-2.311.844h-.047v-.7h-1.317v6.309h1.41v-4.53a4.368,4.368,0,0,1,1.837-.635c.613,0,.844.3.844.844v4.322h1.41v-4.587A1.641,1.641,0,0,0,354.707,204.406Zm15.317,0a13.057,13.057,0,0,0-2.4.266v1.2a8.548,8.548,0,0,1,2.068-.289c1.029,0,1.375.392,1.375.97v.474h-1.617c-1.479,0-2.358.74-2.358,1.953a1.827,1.827,0,0,0,1.965,1.953,3.588,3.588,0,0,0,2.068-.785h.046l.1.7h1.213v-4.206C372.486,205.158,371.562,204.406,370.025,204.406Zm1.04,4.807a2.814,2.814,0,0,1-1.548.543c-.578,0-.994-.289-.994-.878,0-.543.358-.844,1.132-.844h1.41Zm-34.437.15a7.989,7.989,0,0,1-2.138.393c-1.248,0-1.975-.462-1.987-1.675h4.24v-.647c0-1.572-.531-3.027-2.738-3.027-1.872,0-2.993,1.1-2.993,3.294,0,2.276,1.087,3.293,3.143,3.293a8.162,8.162,0,0,0,2.473-.4Zm-2.7-3.836c1.167,0,1.363.832,1.375,1.525h-2.819A1.392,1.392,0,0,1,333.924,205.527Zm13.8-1.109a4.831,4.831,0,0,0-2.253.8v-2.681h-1.422v8.319h1.422v-4.53a4.438,4.438,0,0,1,1.837-.624.745.745,0,0,1,.832.832v4.322h1.422v-4.587A1.641,1.641,0,0,0,347.726,204.418ZM337.685,207.7c0,2.6,1.618,3.293,3.143,3.293a6.657,6.657,0,0,0,1.987-.289v-1.236a6.159,6.159,0,0,1-1.768.289,1.8,1.8,0,0,1-1.918-2.056c0-1.422.682-2.045,1.918-2.045a5.777,5.777,0,0,1,1.768.289V204.7a6.657,6.657,0,0,0-1.987-.289C339.3,204.406,337.685,205.111,337.685,207.7Z" transform="translate(620.049 -56.918)" fill="#003c7d"/><g id="Group_515" data-name="Group 515" transform="translate(943 154.509)"><path id="Path_840" data-name="Path 840" d="M340.908,228.3h1.41v-8.319h-1.41Zm5.421-6.447a13.053,13.053,0,0,0-2.4.266v1.2a8.548,8.548,0,0,1,2.068-.289c1.029,0,1.375.393,1.375.97v.474h-1.617c-1.479,0-2.358.74-2.358,1.953a1.827,1.827,0,0,0,1.965,1.953,3.589,3.589,0,0,0,2.068-.785h.046l.1.7h1.213v-4.206C348.79,222.6,347.866,221.853,346.329,221.853Zm1.04,4.806a2.813,2.813,0,0,1-1.548.543c-.578,0-.994-.289-.994-.878,0-.543.358-.844,1.132-.844h1.41Zm-10.181-3.27c-.878-.139-1.652-.266-1.652-1.132,0-.8.578-1.155,1.733-1.155a15.844,15.844,0,0,1,2.115.2V220a20.112,20.112,0,0,0-2.138-.162c-1.583,0-3.2.439-3.2,2.449,0,1.826,1.213,2.219,2.334,2.369.982.127,1.906.231,1.906,1.2,0,.879-.624,1.317-1.791,1.317a13.2,13.2,0,0,1-2.346-.289V228.2a12.857,12.857,0,0,0,2.461.243c1.871,0,3.166-.8,3.166-2.634C339.776,223.782,338.4,223.586,337.188,223.389Zm15.49,1.109c-.751-.116-1.283-.219-1.283-.739,0-.474.382-.694,1.329-.694a11.075,11.075,0,0,1,1.652.174l.046-1.225a12.049,12.049,0,0,0-1.86-.161c-1.513,0-2.623.508-2.623,1.976,0,1.387,1.063,1.687,1.964,1.825.8.127,1.4.208,1.4.774,0,.532-.381.809-1.224.809a16.466,16.466,0,0,1-2.045-.2l-.047,1.26a20.608,20.608,0,0,0,2.161.139c1.71,0,2.611-.694,2.611-2.068C354.758,224.88,353.648,224.66,352.678,224.5Zm7.254,1.629-.624-1.074a3.109,3.109,0,0,0,1.537-2.877v-.185h-1.421v.266a2.088,2.088,0,0,1-1.363,2.138l-.786.324v-4.737h-1.41V228.3h1.41v-2.357l.751-.312.635,1.167a2.541,2.541,0,0,0,2.253,1.583,2.046,2.046,0,0,0,.462-.034v-1.271A1.62,1.62,0,0,1,359.932,226.128ZM365,221.853a13.065,13.065,0,0,0-2.4.266v1.2a8.557,8.557,0,0,1,2.069-.289c1.028,0,1.375.393,1.375.97v.474h-1.617c-1.479,0-2.358.74-2.358,1.953a1.827,1.827,0,0,0,1.965,1.953,3.585,3.585,0,0,0,2.068-.785h.046l.1.7h1.213v-4.206C367.457,222.6,366.532,221.853,365,221.853Zm1.04,4.806a2.815,2.815,0,0,1-1.548.543c-.577,0-.994-.289-.994-.878,0-.543.358-.844,1.132-.844h1.41Z" transform="translate(-334.045 -218.474)" fill="#003c7d"/><path id="Path_841" data-name="Path 841" d="M357.277,235.963l-.4-1.005h1.213l.627,1.005Z" transform="translate(-343.34 -224.63)" fill="#003c7d"/><path id="Path_842" data-name="Path 842" d="M339.5,217.535l-.4,1.005h1.213l.627-1.005Z" transform="translate(-336.103 -217.535)" fill="#003c7d"/></g></g></svg>