<svg  viewBox="0 0 21 15" fill="none" xmlns="http://www.w3.org/2000/svg">
<path d="M19.9515 3.721L19.9265 3.553L19.9005 3.559C19.7228 2.72804 19.3135 1.96437 18.7199 1.35635C18.1262 0.748335 17.3726 0.320824 16.5461 0.123283C15.7196 -0.0742571 14.8541 -0.0337537 14.0497 0.240108C13.2453 0.513969 12.5349 1.00999 12.0006 1.67079C11.4664 2.33159 11.1302 3.13015 11.0308 3.97408C10.9315 4.818 11.0732 5.6728 11.4395 6.43957C11.8057 7.20634 12.3816 7.85373 13.1004 8.30685C13.8193 8.75997 14.6518 9.00029 15.5015 9C15.7245 9 15.9385 8.966 16.1515 8.935C16.0825 9.167 16.0115 9.403 15.8975 9.615C15.7835 9.923 15.6055 10.19 15.4285 10.459C15.2805 10.75 15.0195 10.947 14.8275 11.196C14.6265 11.438 14.3525 11.599 14.1355 11.8C13.9225 12.01 13.6435 12.115 13.4215 12.263C13.1895 12.396 12.9875 12.543 12.7715 12.613L12.2325 12.835L11.7585 13.032L12.2425 14.971L12.8395 14.827C13.0305 14.779 13.2635 14.723 13.5285 14.656C13.7995 14.606 14.0885 14.469 14.4105 14.344C14.7275 14.201 15.0965 14.106 15.4385 13.877C15.7825 13.659 16.1795 13.477 16.5295 13.185C16.8685 12.884 17.2775 12.623 17.5795 12.241C17.9095 11.883 18.2355 11.507 18.4885 11.079C18.7815 10.671 18.9805 10.223 19.1905 9.78C19.3805 9.337 19.5335 8.884 19.6585 8.444C19.8955 7.562 20.0015 6.724 20.0425 6.007C20.0765 5.289 20.0565 4.692 20.0145 4.26C20.0005 4.07959 19.9794 3.89979 19.9515 3.721V3.721ZM8.95152 3.721L8.92652 3.553L8.90052 3.559C8.72282 2.72804 8.31348 1.96437 7.71986 1.35635C7.12623 0.748335 6.37258 0.320824 5.54611 0.123283C4.71964 -0.0742571 3.85413 -0.0337537 3.04972 0.240108C2.24531 0.513969 1.53488 1.00999 1.00063 1.67079C0.466385 2.33159 0.130153 3.13015 0.0308411 3.97408C-0.0684708 4.818 0.0731967 5.6728 0.439452 6.43957C0.805708 7.20634 1.38158 7.85373 2.10044 8.30685C2.8193 8.75997 3.65177 9.00029 4.50152 9C4.72452 9 4.93852 8.966 5.15152 8.935C5.08252 9.167 5.01152 9.403 4.89752 9.615C4.78352 9.923 4.60552 10.19 4.42852 10.459C4.28052 10.75 4.01952 10.947 3.82752 11.196C3.62652 11.438 3.35252 11.599 3.13552 11.8C2.92252 12.01 2.64352 12.115 2.42152 12.263C2.18952 12.396 1.98752 12.543 1.77152 12.613L1.23252 12.835C0.931516 12.958 0.759516 13.03 0.759516 13.03L1.24352 14.969L1.84052 14.825C2.03152 14.777 2.26452 14.721 2.52952 14.654C2.80052 14.604 3.08952 14.467 3.41152 14.342C3.72852 14.199 4.09752 14.104 4.43952 13.875C4.78352 13.657 5.18052 13.475 5.53052 13.183C5.86952 12.882 6.27852 12.621 6.58052 12.239C6.91052 11.881 7.23652 11.505 7.48952 11.077C7.78252 10.669 7.98152 10.221 8.19152 9.778C8.38152 9.335 8.53452 8.882 8.65952 8.442C8.89652 7.56 9.00252 6.722 9.04352 6.005C9.07752 5.287 9.05752 4.69 9.01552 4.258C9.00058 4.0783 8.97924 3.89918 8.95152 3.721V3.721Z" fill="black"/>
</svg>
