<svg viewBox="0 0 113 113" fill="none" xmlns="http://www.w3.org/2000/svg">
<path d="M37.3818 11.5541C36.0578 12.8785 35.314 14.6746 35.314 16.5473C35.314 18.42 36.0578 20.2161 37.3818 21.5405L72.3412 56.4999L37.3818 91.4593C36.0953 92.7913 35.3835 94.5753 35.3995 96.427C35.4156 98.2788 36.1584 100.05 37.4678 101.36C38.7773 102.669 40.5486 103.412 42.4004 103.428C44.2522 103.444 46.0362 102.732 47.3682 101.446L87.3208 61.4931C88.6448 60.1687 89.3886 58.3726 89.3886 56.4999C89.3886 54.6272 88.6448 52.8311 87.3208 51.5067L47.3682 11.5541C46.0438 10.2301 44.2477 9.48633 42.375 9.48633C40.5023 9.48633 38.7062 10.2301 37.3818 11.5541V11.5541Z" fill="black"/>
</svg>
