<svg viewBox="0 0 24 24" fill="none" xmlns="http://www.w3.org/2000/svg">
<path d="M11.995 0C5.381 0 0 5.382 0 11.996C0 18.616 5.381 24 11.995 24C18.615 24 24 18.615 24 11.996C24 5.382 18.615 0 11.995 0ZM5.908 16.404C7.28142 15.9833 8.70958 15.7683 10.146 15.766C12.56 15.766 14.943 16.378 17.038 17.536C17.163 17.604 17.276 17.828 17.328 18.108C17.378 18.388 17.358 18.675 17.276 18.824C17.2374 18.8949 17.185 18.9574 17.1221 19.0079C17.0591 19.0584 16.9867 19.0959 16.9091 19.1182C16.8316 19.1405 16.7503 19.1472 16.6701 19.1379C16.5899 19.1286 16.5124 19.1035 16.442 19.064C14.9032 18.2198 13.2105 17.6933 11.4644 17.5157C9.71828 17.3381 7.95426 17.513 6.277 18.03C6.2 18.0549 6.11882 18.0642 6.03818 18.0574C5.95754 18.0507 5.87906 18.0279 5.8073 17.9905C5.73555 17.9531 5.67196 17.9017 5.62023 17.8395C5.5685 17.7773 5.52967 17.7054 5.506 17.628C5.399 17.278 5.62 16.498 5.908 16.404ZM5.385 11.984C6.93655 11.5625 8.53722 11.349 10.145 11.349C13.039 11.349 15.912 12.049 18.455 13.375C18.634 13.465 18.765 13.619 18.825 13.807C18.8553 13.9019 18.8664 14.002 18.8574 14.1013C18.8485 14.2005 18.8198 14.297 18.773 14.385C18.546 14.829 18.28 15.128 18.113 15.128C17.9912 15.1275 17.8712 15.098 17.763 15.042C15.4122 13.8147 12.7979 13.1784 10.146 13.188C8.67093 13.185 7.20226 13.3818 5.78 13.773C5.68512 13.7989 5.58606 13.8059 5.48848 13.7936C5.39089 13.7812 5.2967 13.7498 5.21127 13.701C5.12584 13.6523 5.05085 13.5872 4.99058 13.5095C4.9303 13.4317 4.88594 13.3429 4.86 13.248C4.748 12.826 5.005 12.088 5.385 11.984ZM5.25 9.098C5.13744 9.12689 5.02028 9.1332 4.90527 9.11656C4.79026 9.09993 4.67969 9.06068 4.57993 9.00109C4.48017 8.94149 4.3932 8.86273 4.32405 8.76934C4.25489 8.67596 4.20491 8.5698 4.177 8.457C4.054 7.959 4.365 7.381 4.817 7.267C6.56051 6.83757 8.34939 6.61966 10.145 6.618C13.595 6.618 16.901 7.394 19.969 8.925C20.1798 9.02982 20.3403 9.21405 20.4153 9.43719C20.4904 9.66034 20.4737 9.90414 20.369 10.115C20.226 10.403 19.916 10.713 19.574 10.713C19.4399 10.7125 19.3075 10.6828 19.186 10.626C16.3806 9.21863 13.2836 8.49038 10.145 8.5C8.51 8.5 6.863 8.701 5.25 9.098Z" fill="#1DB954"/>
</svg>
