<svg viewBox="0 0 98 95" fill="none" xmlns="http://www.w3.org/2000/svg">
<path d="M97.6725 35.5961C97.3047 34.4281 96.5959 33.3969 95.6373 32.6351C94.6786 31.8732 93.514 31.4156 92.2931 31.3211L65.8149 29.0322C65.6547 29.0165 65.5019 28.9576 65.3725 28.862C65.2431 28.7663 65.1421 28.6374 65.0801 28.4889L54.7355 3.83642C54.2564 2.7118 53.4573 1.75284 52.4375 1.07881C51.4177 0.404776 50.2223 0.0454102 48.9999 0.0454102C47.7775 0.0454102 46.582 0.404776 45.5622 1.07881C44.5424 1.75284 43.7433 2.7118 43.2642 3.83642L32.9196 28.4889C32.8576 28.6374 32.7566 28.7663 32.6272 28.862C32.4979 28.9576 32.345 29.0165 32.1849 29.0322L5.70658 31.3211C4.48574 31.4156 3.32109 31.8732 2.36244 32.6351C1.40379 33.3969 0.694991 34.4281 0.327207 35.5961C-0.0623096 36.7657 -0.0963343 38.0245 0.229435 39.2135C0.555204 40.4024 1.22614 41.4681 2.15744 42.2758L22.2455 59.7988C22.3685 59.9081 22.4598 60.0484 22.51 60.2051C22.5601 60.3618 22.5672 60.5291 22.5305 60.6895L16.492 86.7447C16.2106 87.9443 16.2909 89.2004 16.7228 90.3544C17.1548 91.5084 17.919 92.5085 18.919 93.2285C19.9035 93.9548 21.0831 94.3694 22.3055 94.4186C23.528 94.4678 24.7371 94.1494 25.7768 93.5045L48.5367 79.6999C48.6705 79.6171 48.8247 79.5732 48.982 79.5732C49.1394 79.5732 49.2936 79.6171 49.4274 79.6999L72.1873 93.5045C73.2378 94.1477 74.4552 94.4653 75.686 94.4172C76.9168 94.3691 78.1058 93.9574 79.1028 93.2343C80.0999 92.5111 80.8605 91.5088 81.2885 90.3538C81.7165 89.1989 81.7927 87.943 81.5077 86.7447L75.487 60.6806C75.4503 60.5202 75.4574 60.3529 75.5075 60.1962C75.5577 60.0395 75.649 59.8992 75.772 59.7899L95.8601 42.2669C96.7866 41.4578 97.453 40.3927 97.7755 39.2057C98.098 38.0187 98.0622 36.7628 97.6725 35.5961ZM92.3288 38.2324L72.2407 55.7554C71.3848 56.5002 70.7483 57.4644 70.3999 58.5442C70.0515 59.6239 70.0043 60.7783 70.2635 61.8829L76.2842 87.9471C76.3287 88.1222 76.3188 88.3067 76.256 88.4761C76.1932 88.6455 76.0803 88.7918 75.9324 88.8956C75.7985 89.0028 75.6338 89.0645 75.4624 89.0717C75.2911 89.0789 75.1218 89.0312 74.9794 88.9356L52.2195 75.1309C51.2491 74.5412 50.1354 74.2292 48.9999 74.2292C47.8643 74.2292 46.7506 74.5412 45.7802 75.1309L23.0203 88.9356C22.8779 89.0312 22.7087 89.0789 22.5373 89.0717C22.3659 89.0645 22.2013 89.0028 22.0674 88.8956C21.9194 88.7918 21.8066 88.6455 21.7437 88.4761C21.6809 88.3067 21.6711 88.1222 21.7156 87.9471L27.7362 61.8829C27.9954 60.7783 27.9482 59.6239 27.5998 58.5442C27.2514 57.4644 26.6149 56.5002 25.759 55.7554L5.67096 38.2324C5.53357 38.1155 5.4349 37.9597 5.38798 37.7856C5.34107 37.6114 5.34813 37.4272 5.40822 37.2571C5.45319 37.0878 5.5507 36.9371 5.68673 36.8267C5.82276 36.7162 5.99029 36.6518 6.16525 36.6426L32.648 34.3537C33.7817 34.2571 34.8674 33.8521 35.7874 33.1825C36.7074 32.5129 37.4266 31.6043 37.867 30.5552L48.2117 5.90267C48.2836 5.74966 48.3976 5.62029 48.5403 5.52967C48.683 5.43905 48.8486 5.39093 49.0177 5.39093C49.1867 5.39093 49.3523 5.43905 49.495 5.52967C49.6378 5.62029 49.7518 5.74966 49.8237 5.90267L60.1327 30.5552C60.5717 31.6018 61.2882 32.5087 62.2048 33.1781C63.1214 33.8475 64.2033 34.254 65.3339 34.3537L91.8167 36.6426C91.9916 36.6518 92.1592 36.7162 92.2952 36.8267C92.4312 36.9371 92.5287 37.0878 92.5737 37.2571C92.6358 37.4254 92.6457 37.6086 92.602 37.7826C92.5583 37.9566 92.4631 38.1134 92.3288 38.2324Z" fill="var(--black-100)"/>
</svg>
