<svg  viewBox="0 0 302 302" fill="none" xmlns="http://www.w3.org/2000/svg">
<path d="M151 0C191.048 0 229.455 15.9089 257.773 44.2269C286.091 72.5449 302 110.952 302 151C302 191.048 286.091 229.455 257.773 257.773C229.455 286.091 191.048 302 151 302C110.952 302 72.5449 286.091 44.2269 257.773C15.9089 229.455 0 191.048 0 151C0 110.952 15.9089 72.5449 44.2269 44.2269C72.5449 15.9089 110.952 0 151 0V0ZM132.19 180.79L98.6461 147.225C97.4436 146.022 96.016 145.069 94.4448 144.418C92.8737 143.767 91.1897 143.432 89.4891 143.432C87.7884 143.432 86.1045 143.767 84.5333 144.418C82.9621 145.069 81.5345 146.022 80.332 147.225C77.9034 149.654 76.539 152.948 76.539 156.382C76.539 159.817 77.9034 163.111 80.332 165.539L123.043 208.251C124.243 209.459 125.669 210.418 127.241 211.073C128.812 211.728 130.498 212.065 132.2 212.065C133.903 212.065 135.589 211.728 137.16 211.073C138.732 210.418 140.158 209.459 141.358 208.251L229.8 119.786C231.019 118.589 231.988 117.162 232.653 115.588C233.317 114.014 233.663 112.323 233.671 110.615C233.679 108.906 233.349 107.213 232.699 105.633C232.049 104.053 231.093 102.617 229.886 101.408C228.679 100.199 227.244 99.2416 225.664 98.59C224.085 97.9385 222.392 97.6061 220.684 97.612C218.975 97.6179 217.285 97.9621 215.71 98.6246C214.135 99.2871 212.707 100.255 211.508 101.472L132.19 180.79Z" fill="black"/>
</svg>
