<svg  viewBox="0 0 24 20" fill="none" xmlns="http://www.w3.org/2000/svg">
<path d="M23.643 2.93699C22.808 3.30699 21.911 3.55699 20.968 3.66999C21.941 3.08778 22.669 2.17145 23.016 1.09199C22.1019 1.63497 21.1014 2.01718 20.058 2.22199C19.3564 1.47285 18.4271 0.976312 17.4143 0.809459C16.4016 0.642607 15.3621 0.814777 14.4572 1.29924C13.5524 1.7837 12.8328 2.55335 12.4102 3.48869C11.9875 4.42403 11.8855 5.47274 12.12 6.47199C10.2677 6.37898 8.45564 5.89753 6.80144 5.05889C5.14723 4.22025 3.68785 3.04315 2.51801 1.60399C2.11801 2.29399 1.88801 3.09399 1.88801 3.94599C1.88757 4.71298 2.07644 5.46823 2.43789 6.14472C2.79934 6.82121 3.32217 7.39802 3.96001 7.82399C3.22029 7.80045 2.49688 7.60057 1.85001 7.24099V7.30098C1.84994 8.37673 2.22204 9.41936 2.90319 10.252C3.58434 11.0846 4.53258 11.6559 5.58701 11.869C4.9008 12.0547 4.18135 12.0821 3.48301 11.949C3.78051 12.8746 4.36001 13.684 5.14038 14.2639C5.92075 14.8438 6.86293 15.1652 7.83501 15.183C6.18485 16.4784 4.1469 17.1811 2.04901 17.178C1.67739 17.1781 1.30609 17.1564 0.937012 17.113C3.06649 18.4822 5.54535 19.2088 8.07701 19.206C16.647 19.206 21.332 12.108 21.332 5.95199C21.332 5.75199 21.327 5.54999 21.318 5.34999C22.2293 4.69096 23.0159 3.87488 23.641 2.93999L23.643 2.93699V2.93699Z" fill="white"/>
</svg>
