<svg viewBox="0 0 118 115" fill="none" xmlns="http://www.w3.org/2000/svg">
<path d="M107.125 36.4167C107.28 35.7522 107.381 35.0697 107.381 34.3582C107.381 31.9242 106.408 29.7213 104.845 28.0998C106.365 27.1392 107.381 25.4563 107.381 23.5243C107.379 22.6394 107.162 21.7684 106.747 20.9874C106.333 20.2063 105.733 19.539 105.002 19.0437C104.271 18.5485 103.43 18.2404 102.552 18.1464C101.675 18.0524 100.788 18.1754 99.9685 18.5045C99.723 17.5946 99.2439 16.765 98.5791 16.0984C97.9143 15.4319 97.087 14.9516 96.1794 14.7054C96.5077 13.8841 96.6304 12.9946 96.5366 12.1148C96.4429 11.235 96.1356 10.3916 95.6417 9.65835C95.1477 8.9251 94.4822 8.32433 93.7032 7.90856C92.9242 7.4928 92.0555 7.27468 91.173 7.2733C90.4851 7.2733 89.8332 7.41414 89.2281 7.64888C89.0454 6.45075 88.6236 5.30189 87.9878 4.27105C87.3519 3.24021 86.5152 2.34859 85.5277 1.64956C84.5402 0.950518 83.4222 0.458435 82.2406 0.202756C81.0589 -0.0529218 79.838 -0.0669379 78.6508 0.161547C77.4637 0.390032 76.3347 0.85632 75.3315 1.5325C74.3283 2.20869 73.4714 3.08087 72.8122 4.09684C72.1531 5.11281 71.7051 6.25169 71.4951 7.4453C71.2852 8.63892 71.3176 9.86274 71.5903 11.0435C69.2852 11.4516 67.3043 12.7372 65.9608 14.5429C65.129 13.4109 64.044 12.4902 62.7929 11.8549C61.5419 11.2196 60.1597 10.8872 58.7573 10.8846C56.3692 10.8846 54.0789 11.8358 52.3903 13.529C50.7016 15.2221 49.753 17.5185 49.753 19.9129L49.7566 19.9563C48.649 19.1058 47.357 18.5292 45.9855 18.2734C45.6065 16.1999 44.5146 14.3252 42.8998 12.9752C41.285 11.6253 39.2493 10.8856 37.1469 10.8846C35.0391 10.8861 32.9989 11.6301 31.3827 12.9866C29.7665 14.343 28.677 16.2258 28.3046 18.3059C27.6565 18.1883 27.0001 18.1219 26.3416 18.1073C22.9983 18.1073 19.7919 19.4389 17.4278 21.8093C15.0637 24.1797 13.7355 27.3947 13.7355 30.7469C13.7355 32.7151 14.2218 34.5532 15.0214 36.2144C13.6148 36.3098 12.3017 36.9544 11.3639 38.0099C10.4262 39.0654 9.93873 40.4474 10.0062 41.8593C10.0736 43.2712 10.6906 44.6003 11.7246 45.5611C12.7586 46.5218 14.1272 47.0377 15.5364 46.9979H105.58C106.879 47.0064 108.137 46.5438 109.123 45.6954C110.108 44.847 110.755 43.6699 110.943 42.3812C111.131 41.0925 110.849 39.779 110.147 38.6828C109.445 37.5867 108.372 36.7819 107.125 36.4167Z" fill="#FFD983"/>
<path d="M94.3198 25.8001C96.2859 25.8001 97.8798 24.2062 97.8798 22.2401C97.8798 20.2739 96.2859 18.6801 94.3198 18.6801C92.3536 18.6801 90.7598 20.2739 90.7598 22.2401C90.7598 24.2062 92.3536 25.8001 94.3198 25.8001Z" fill="#FFAC33"/>
<path d="M81.86 18.68C84.8092 18.68 87.2 16.2892 87.2 13.34C87.2 10.3908 84.8092 8 81.86 8C78.9108 8 76.52 10.3908 76.52 13.34C76.52 16.2892 78.9108 18.68 81.86 18.68Z" fill="#FFAC33"/>
<path d="M37.3598 22.24C39.3259 22.24 40.9198 20.6461 40.9198 18.68C40.9198 16.7139 39.3259 15.12 37.3598 15.12C35.3937 15.12 33.7998 16.7139 33.7998 18.68C33.7998 20.6461 35.3937 22.24 37.3598 22.24Z" fill="#FFAC33"/>
<path d="M105 38.26C105 36.9976 104.552 35.776 103.736 34.8131C102.919 33.8501 101.788 33.2082 100.542 33.0018C99.2967 32.7954 98.0184 33.0378 96.9349 33.6858C95.8515 34.3339 95.0333 35.3455 94.6262 36.5405C94.5229 36.5334 94.4304 36.48 94.32 36.48C93.3758 36.48 92.4703 36.8551 91.8027 37.5227C91.1351 38.1903 90.76 39.0958 90.76 40.04H104.672C104.872 39.4811 105 38.8866 105 38.26ZM28.46 36.48C29.1649 36.48 29.8306 36.6224 30.4465 36.8716C30.7785 35.6196 31.5554 34.5316 32.6318 33.8111C33.7081 33.0906 35.0101 32.787 36.2942 32.9572C37.5782 33.1275 38.7562 33.7598 39.6076 34.7358C40.4591 35.7119 40.9256 36.9648 40.92 38.26C40.92 38.8866 40.7918 39.4811 40.5925 40.04H55.4875C55.2767 39.47 55.1659 38.8678 55.16 38.26C55.16 36.8438 55.7226 35.4855 56.7241 34.4841C57.7255 33.4826 59.0837 32.92 60.5 32.92C61.3437 32.92 62.134 33.1336 62.8425 33.4825C62.4772 32.7554 62.2847 31.9537 62.28 31.14C62.2769 30.3512 62.4487 29.5715 62.7829 28.857C63.1171 28.1425 63.6054 27.5109 64.2128 27.0076C64.8201 26.5043 65.5315 26.1418 66.2956 25.9462C67.0598 25.7506 67.8578 25.7267 68.6323 25.8762C69.4068 26.0257 70.1386 26.345 70.775 26.8111C71.4114 27.2771 71.9366 27.8784 72.313 28.5716C72.6893 29.2648 72.9074 30.0328 72.9516 30.8204C72.9958 31.608 72.8649 32.3955 72.5684 33.1265C74.8397 33.7388 76.52 35.7929 76.52 38.26C76.52 38.8866 76.3918 39.4811 76.1925 40.04H86.7586L84.7436 38.26C86.2388 36.9535 87.2 35.0596 87.2 32.92C87.2 31.0317 86.4499 29.2207 85.1146 27.8854C83.7793 26.5502 81.9683 25.8 80.08 25.8C78.7848 25.8054 77.5161 26.1675 76.4132 26.8467C76.4666 26.5013 76.52 26.1596 76.52 25.8C76.5231 24.174 75.9688 22.5961 74.9494 21.3293C73.93 20.0625 72.5072 19.1835 70.9182 18.8387C69.3292 18.4939 67.67 18.7042 66.2173 19.4346C64.7645 20.165 63.6061 21.3713 62.935 22.8523C62.1842 22.456 61.349 22.246 60.5 22.24C59.6278 22.2414 58.7691 22.4564 57.9992 22.8662C57.2292 23.2761 56.5714 23.8683 56.0832 24.5912C55.595 25.314 55.2912 26.1454 55.1986 27.0127C55.1059 27.88 55.2271 28.7568 55.5516 29.5665C53.2803 30.1824 51.6 32.2365 51.6 34.7C51.6 35.4049 51.7424 36.0706 51.9916 36.6865C51.1847 36.9039 50.4407 37.3089 49.82 37.8684C48.8476 36.9785 47.5781 36.4835 46.26 36.48C45.4163 36.48 44.626 36.6936 43.914 37.0461C44.2664 36.3341 44.48 35.5437 44.48 34.7C44.4786 33.8278 44.2636 32.9691 43.8538 32.1992C43.4439 31.4292 42.8517 30.7714 42.1288 30.2832C41.406 29.795 40.5746 29.4913 39.7073 29.3986C38.84 29.3059 37.9632 29.4271 37.1535 29.7516C36.9652 29.0498 36.6352 28.3939 36.1839 27.8243C35.7327 27.2548 35.1696 26.7836 34.5294 26.4398C33.8892 26.096 33.1854 25.8868 32.4613 25.8252C31.7372 25.7636 31.0082 25.8508 30.3191 26.0815C29.63 26.3121 28.9954 26.6814 28.4544 27.1665C27.9133 27.6516 27.4773 28.2423 27.1731 28.9023C26.8689 29.5622 26.7029 30.2774 26.6855 31.0039C26.668 31.7304 26.7994 32.4527 27.0716 33.1265C26.2647 33.3439 25.5207 33.7489 24.9 34.3084C23.9276 33.4185 22.6581 32.9235 21.34 32.92C19.9237 32.92 18.5655 33.4826 17.564 34.4841C16.5626 35.4855 16 36.8438 16 38.26C16 38.8866 16.1282 39.4811 16.3275 40.04H23.4475C24.1844 37.9717 26.1389 36.48 28.46 36.48Z" fill="#FFAC33"/>
<path d="M107.152 18.0562H10.8479C9.42335 18.0562 8.01273 18.3665 6.6966 18.9696C5.38047 19.5727 4.1846 20.4566 3.17728 21.5709C2.16996 22.6852 1.37091 24.008 0.825748 25.464C0.280589 26.9199 0 28.4803 0 30.0562C0 31.632 0.280589 33.1924 0.825748 34.6484C1.37091 36.1043 2.16996 37.4271 3.17728 38.5414C4.1846 39.6557 5.38047 40.5397 6.6966 41.1427C8.01273 41.7458 9.42335 42.0562 10.8479 42.0562C11.506 42.0562 12.1388 41.9642 12.7644 41.8442L12.7065 42.0562L15.0099 98.0722C15.3679 106.864 22.1731 114.056 30.1283 114.056H87.9838C95.939 114.056 102.744 106.864 103.106 98.0722L105.406 42.0562L105.351 41.8562C105.941 41.9642 106.534 42.0562 107.152 42.0562C108.577 42.0562 109.987 41.7458 111.303 41.1427C112.62 40.5397 113.815 39.6557 114.823 38.5414C115.83 37.4271 116.629 36.1043 117.174 34.6484C117.719 33.1924 118 31.632 118 30.0562C118 28.4803 117.719 26.9199 117.174 25.464C116.629 24.008 115.83 22.6852 114.823 21.5709C113.815 20.4566 112.62 19.5727 111.303 18.9696C109.987 18.3665 108.577 18.0562 107.152 18.0562Z" fill="#E1E8ED"/>
<path d="M101.672 42.0562V110.012C105.124 107.076 107.448 102.828 107.64 98.0682L110.36 42.0562H101.672ZM77.6721 42.0562H89.6721V114.056H77.6721V42.0562ZM53.6721 114.056V42.0562H65.6721V114.056H53.6721ZM29.6721 42.0562H41.6721V114.056H29.6721V42.0562ZM7.64014 42.0562L10.3601 98.0682C10.5761 103.436 13.4641 108.18 17.6721 111.084V42.0562H7.64014Z" fill="#EF476F"/>
<path opacity="0.6" d="M7.64014 42.0562L8.02814 50.0562H109.968L110.36 42.0562H7.64014Z" fill="#99AAB5"/>
<path d="M3 26.0562V30.0562C3 31.117 3.42143 32.1344 4.17157 32.8846C4.92172 33.6347 5.93913 34.0562 7 34.0562H111C112.061 34.0562 113.078 33.6347 113.828 32.8846C114.579 32.1344 115 31.117 115 30.0562V26.0562H3Z" fill="white"/>
</svg>
